<?xml version="1.0" encoding="UTF-8"?>
<svg version="1.1" xmlns="http://www.w3.org/2000/svg" width="2500" height="2500">
<path d="M0 0 C1.04457241 -0.00282738 2.08914482 -0.00565475 3.16537094 -0.00856781 C8.72141506 -0.02344912 14.27743408 -0.03274152 19.83349609 -0.03710938 C24.30233161 -0.04144026 28.77096817 -0.0551361 33.23974609 -0.078125 C74.07132178 -0.28360871 114.73799897 1.29645186 155.3671875 5.515625 C156.39220367 5.61917297 157.41721985 5.72272095 158.47329712 5.82940674 C194.04789606 9.43149578 229.3638192 14.5382491 264.4921875 21.203125 C265.35247559 21.36598999 266.21276367 21.52885498 267.09912109 21.69665527 C312.2395266 30.2758378 356.62006686 41.56534936 400.4921875 55.203125 C401.78062561 55.60337891 401.78062561 55.60337891 403.09509277 56.01171875 C461.64651832 74.24800494 518.59931899 96.94925384 573.70751953 123.85351562 C577.36288442 125.62511453 581.03871935 127.35163123 584.71508789 129.07910156 C595.4784754 134.14818842 606.03423332 139.53210687 616.4921875 145.203125 C617.54374023 145.77272949 618.59529297 146.34233398 619.67871094 146.92919922 C645.43159587 160.91991396 670.74956737 175.58642169 695.49462891 191.29980469 C698.63986669 193.29689491 701.79071343 195.2849667 704.94140625 197.2734375 C716.2956444 204.4638587 727.45862597 211.82665521 738.36279297 219.68164062 C741.4953179 221.91987674 744.65961139 224.11168645 747.8215332 226.30810547 C764.0510143 237.59263006 779.87483758 249.36104536 795.41699219 261.57324219 C797.3898115 263.12271768 799.36615051 264.66757011 801.34375 266.2109375 C811.28440467 273.97823992 821.04567728 281.94252171 830.65429688 290.1171875 C834.08259495 293.02900413 837.55193065 295.88075977 841.0546875 298.703125 C846.12826243 302.83002706 850.92959892 307.20415058 855.72265625 311.6484375 C857.95137143 313.70426222 860.19986669 315.71929457 862.4921875 317.703125 C866.86015818 321.49351278 871.1105151 325.40983119 875.36328125 329.328125 C877.36643569 331.17318461 879.37993941 333.00388914 881.40234375 334.828125 C887.82330037 340.63550434 894.00469971 346.62996835 900.06567383 352.81347656 C903.10212943 355.89351765 906.18256769 358.83863488 909.46875 361.65234375 C913.6515601 365.26284368 917.38026207 369.20191227 921.1171875 373.265625 C926.32837847 378.87432647 931.60868222 384.38451457 937.0546875 389.765625 C941.06235023 393.73365695 944.95299691 397.71834145 948.59765625 402.02734375 C951.27300619 405.09985904 954.07814051 408.04649906 956.8671875 411.015625 C961.54903496 416.01534701 965.9674461 421.14291688 970.25 426.4921875 C972.73127504 429.492196 975.34124207 432.35425934 977.9921875 435.203125 C982.17176016 439.70580497 986.14390182 444.32722461 989.99609375 449.11328125 C991.88316773 451.44923668 993.78559478 453.76681197 995.70703125 456.07421875 C1002.74061915 464.52912205 1009.56053844 473.10702668 1016.19921875 481.875 C1019.05404547 485.64251268 1021.95876728 489.36867399 1024.87548828 493.08837891 C1030.8647288 500.73094157 1036.67002224 508.46102278 1042.23828125 516.41503906 C1043.55612166 518.2942959 1044.88259206 520.16721798 1046.2109375 522.0390625 C1048.73963534 525.60465569 1051.25739234 529.177804 1053.77050781 532.75439453 C1054.97670467 534.46995812 1056.18452496 536.1843809 1057.39355469 537.89794922 C1065.95783554 550.04498913 1074.25001276 562.29110579 1082.07421875 574.92773438 C1083.47859985 577.18132113 1084.90311562 579.42065532 1086.3359375 581.65625 C1104.71734086 610.37039489 1121.47219612 640.11828279 1137.4921875 670.203125 C1138.0608252 671.27046875 1138.62946289 672.3378125 1139.21533203 673.4375 C1147.65304655 689.33798798 1155.48148773 705.45096657 1162.94384766 721.83007812 C1164.40959094 725.023189 1165.90323967 728.20114932 1167.41015625 731.375 C1180.93122598 759.96592901 1192.70125024 789.48210948 1203.4921875 819.203125 C1203.75281982 819.92056885 1204.01345215 820.6380127 1204.28198242 821.37719727 C1223.69608446 874.93393482 1239.46491153 929.5152287 1251.4921875 985.203125 C1251.66236389 985.98977539 1251.83254028 986.77642578 1252.00787354 987.58691406 C1264.72809243 1046.61670349 1272.40499946 1106.37006975 1276.73046875 1166.5703125 C1276.82534325 1167.87083557 1276.82534325 1167.87083557 1276.9221344 1169.19763184 C1278.13994609 1186.73250917 1278.66218467 1204.23420274 1278.6953125 1221.80859375 C1278.69813988 1222.85224909 1278.70096725 1223.89590443 1278.70388031 1224.97118568 C1278.71875117 1230.52075053 1278.72805049 1236.07029031 1278.73242188 1241.61987305 C1278.73675477 1246.08187266 1278.75046038 1250.54367324 1278.7734375 1255.00561523 C1279.00497023 1300.95024007 1276.58332532 1346.54119967 1271.4921875 1392.203125 C1271.4034436 1393.00804382 1271.31469971 1393.81296265 1271.2232666 1394.64227295 C1263.08088902 1468.31324979 1247.97003747 1541.27575619 1226.4921875 1612.203125 C1226.23715454 1613.0462323 1225.98212158 1613.8893396 1225.71936035 1614.75799561 C1209.27148411 1668.98947318 1189.09751025 1721.69041161 1165.4921875 1773.203125 C1165.16561157 1773.91708435 1164.83903564 1774.6310437 1164.50256348 1775.36663818 C1151.18507999 1804.45603593 1136.89207243 1832.98588445 1120.91503906 1860.71289062 C1119.1248679 1863.84599732 1117.38499355 1867.00512621 1115.64941406 1870.16870117 C1109.87680314 1880.68442016 1103.75468471 1890.97270061 1097.4921875 1901.203125 C1096.93966309 1902.10740234 1096.38713867 1903.01167969 1095.81787109 1903.94335938 C1085.15967841 1921.33288294 1073.9031037 1938.3022194 1062.4921875 1955.203125 C1061.9142041 1956.05970703 1061.3362207 1956.91628906 1060.74072266 1957.79882812 C1049.19987359 1974.85824033 1036.94713828 1991.36669455 1024.40722656 2007.70166016 C1022.62235721 2010.03309455 1020.84790175 2012.371942 1019.078125 2014.71484375 C1011.95874914 2024.1241212 1004.57946453 2033.28171848 997.03027344 2042.34912109 C994.95728674 2044.84789268 992.91243988 2047.36913155 990.8671875 2049.890625 C986.0352926 2055.80122707 981.06365782 2061.58823079 976.07470703 2067.36621094 C974.49888037 2069.19535623 972.93051847 2071.03068065 971.36328125 2072.8671875 C965.01592756 2080.27960562 958.50318588 2087.49945089 951.7800293 2094.57373047 C948.75600073 2097.75993091 945.7959775 2100.97814219 942.921875 2104.30078125 C939.47187592 2108.27498344 935.80017228 2111.95685104 932.03125 2115.625 C929.32792251 2118.28541753 926.76950911 2121.00623042 924.30078125 2123.88671875 C920.09137891 2128.75048026 915.56000674 2133.28571614 911.00415039 2137.8215332 C909.55694365 2139.26337721 908.11516724 2140.71049616 906.67382812 2142.15820312 C901.99636507 2146.8386722 897.25340696 2151.37850106 892.22827148 2155.68530273 C889.6856902 2157.90822889 887.35192303 2160.28652837 884.9921875 2162.703125 C881.35659614 2166.38801463 877.64605783 2169.91048404 873.70703125 2173.26953125 C871.37882412 2175.30209303 869.12059089 2177.39712571 866.86230469 2179.5065918 C861.45626743 2184.5557302 855.94319511 2189.35840295 850.171875 2193.9921875 C847.35965435 2196.3124745 844.67421487 2198.73383634 841.9921875 2201.203125 C837.1857803 2205.61689612 832.22108667 2209.7667281 827.14257812 2213.86181641 C825.2437995 2215.40499537 823.35963011 2216.96503297 821.4765625 2218.52734375 C814.05285378 2224.68445213 806.59376386 2230.75365279 798.9140625 2236.58984375 C796.36436399 2238.52782634 793.83846785 2240.49386101 791.3203125 2242.47265625 C780.89880921 2250.65690363 770.29983143 2258.53705785 759.4921875 2266.203125 C758.63101318 2266.81746399 758.63101318 2266.81746399 757.75244141 2267.44421387 C747.15486676 2275.00343129 736.43029817 2282.34985692 725.59082031 2289.55761719 C723.12333809 2291.19903351 720.65918801 2292.84536364 718.1953125 2294.4921875 C676.21823614 2322.48966399 632.38546922 2347.21244527 587.4921875 2370.203125 C586.49251953 2370.7172998 585.49285156 2371.23147461 584.46289062 2371.76123047 C543.48522246 2392.79068509 500.72796975 2410.40399233 457.4921875 2426.203125 C456.74426941 2426.4774939 455.99635132 2426.75186279 455.22576904 2427.0345459 C365.26283749 2460.02119736 270.62578423 2481.60078568 55.796875 2500.40625 C53.76836119 2500.41327187 51.7398476 2500.4203587 49.71133423 2500.42750549 C43.26328209 2500.44690853 36.81526589 2500.45193966 30.3671875 2500.453125 C29.26869476 2500.45356686 28.17020203 2500.45400871 27.03842163 2500.45446396 C-4.94600013 2500.46121231 -36.80127367 2500.32455295 -68.68133545 2497.45635986 C-71.65162822 2497.19024 -74.62279661 2496.93605535 -77.59423828 2496.68310547 C-138.17634733 2491.46483222 -198.31329859 2482.12693043 -257.5078125 2468.203125 C-258.38590576 2467.99665344 -259.26399902 2467.79018188 -260.16870117 2467.57745361 C-300.54560385 2458.04701822 -340.2563913 2446.43511316 -379.4710083 2432.90441895 C-381.45184879 2432.22239392 -383.43434693 2431.54544205 -385.41748047 2430.87011719 C-427.03901212 2416.67477998 -467.56876423 2399.43608135 -507.33203125 2380.69921875 C-510.30460172 2379.29885653 -513.28081794 2377.90654994 -516.2578125 2376.515625 C-526.88356174 2371.52981491 -537.32181446 2366.26437692 -547.66601562 2360.71972656 C-550.32988894 2359.29807871 -552.99973943 2357.88821036 -555.67190552 2356.48222351 C-572.19629168 2347.78588773 -588.4669244 2338.77049185 -604.5078125 2329.203125 C-606.59760882 2327.96476371 -608.68745349 2326.72648401 -610.77734375 2325.48828125 C-667.79967215 2291.59471748 -722.42569507 2253.14159296 -772.92382812 2210.0859375 C-776.26573338 2207.23928346 -779.65198974 2204.45731648 -783.0703125 2201.703125 C-788.14388743 2197.57622294 -792.94522392 2193.20209942 -797.73828125 2188.7578125 C-799.96699643 2186.70198778 -802.21549169 2184.68695543 -804.5078125 2182.703125 C-808.87717706 2178.91152766 -813.12887149 2174.99395935 -817.3828125 2171.07421875 C-819.37247024 2169.24154205 -821.37279865 2167.42393232 -823.3828125 2165.61328125 C-830.04424863 2159.59445648 -836.43595155 2153.35595382 -842.72558594 2146.94848633 C-845.91188024 2143.71971349 -849.13478876 2140.61506139 -852.578125 2137.66015625 C-856.37801852 2134.38371745 -859.7653987 2130.85387324 -863.1328125 2127.140625 C-867.95523871 2121.89181972 -872.87535362 2116.77569711 -877.9453125 2111.765625 C-881.97284633 2107.77735226 -885.88490367 2103.77647656 -889.546875 2099.4453125 C-892.404438 2096.17789983 -895.40390021 2093.04720214 -898.3828125 2089.890625 C-903.25151409 2084.71655375 -907.8655221 2079.43326604 -912.30078125 2073.87890625 C-914.76761232 2070.88814645 -917.36773565 2068.03972124 -920.0078125 2065.203125 C-925.09243006 2059.73036197 -929.82935248 2054.02801846 -934.5078125 2048.203125 C-935.94391235 2046.45197582 -937.38143573 2044.70199317 -938.8203125 2042.953125 C-953.94201575 2024.45065968 -968.43759364 2005.51693381 -982.5078125 1986.203125 C-982.9583197 1985.58839325 -983.4088269 1984.9736615 -983.87298584 1984.34030151 C-991.85489967 1973.44247304 -999.53269503 1962.37762197 -1006.99267578 1951.11645508 C-1008.63603402 1948.63576203 -1010.28435506 1946.15842717 -1011.93359375 1943.68164062 C-1021.83082293 1928.80091699 -1031.62778317 1913.86884889 -1040.8828125 1898.578125 C-1041.24087982 1897.98739197 -1041.59894714 1897.39665894 -1041.96786499 1896.7880249 C-1049.0658563 1885.06630974 -1055.8813621 1873.19810889 -1062.5078125 1861.203125 C-1063.01119141 1860.29401367 -1063.51457031 1859.38490234 -1064.03320312 1858.44824219 C-1071.75058245 1844.48463993 -1079.23630434 1830.40390299 -1086.5078125 1816.203125 C-1086.95960876 1815.32110413 -1086.95960876 1815.32110413 -1087.42053223 1814.42126465 C-1097.72658764 1794.28044709 -1107.47834859 1773.94853974 -1116.5078125 1753.203125 C-1116.82127625 1752.48380798 -1117.13473999 1751.76449097 -1117.45770264 1751.02337646 C-1156.27383651 1661.80991756 -1184.34095558 1568.36530641 -1217.32287598 1350.47070312 C-1217.49083981 1348.41123377 -1217.66268251 1346.35208167 -1217.83496094 1344.29296875 C-1226.57388514 1237.07195935 -1221.5445396 1128.93651659 -1062.06494141 635.91894531 C-1060.53860535 633.25683144 -1059.02683901 630.58698849 -1057.51953125 627.9140625 C-1036.47702447 590.67000962 -1013.18658239 554.60911788 -987.89404297 520.10693359 C-986.14574535 517.70587252 -984.43189299 515.2815246 -982.71923828 512.85498047 C-976.5502256 504.12487022 -970.05791709 495.64957908 -963.5078125 487.203125 C-962.79407471 486.28249268 -962.79407471 486.28249268 -962.06591797 485.34326172 C-955.16465478 476.4611031 -948.09606037 467.71789663 -940.97998047 459.00732422 C-939.68509739 457.42039454 -938.39490772 455.82963763 -937.10546875 454.23828125 C-932.04095144 448.00150677 -926.84726388 441.88500254 -921.6015625 435.80078125 C-919.58836125 433.4652912 -917.58853089 431.11956098 -915.6015625 428.76171875 C-909.55219209 421.60254976 -903.3048813 414.67690687 -896.84643555 407.88330078 C-893.78388823 404.65794504 -890.78447797 401.40035691 -887.87109375 398.0390625 C-884.47327932 394.1244684 -880.84567567 390.50578124 -877.1328125 386.890625 C-875.17851941 384.88980112 -873.3737068 382.89412037 -871.56640625 380.76953125 C-866.48534167 374.91057038 -860.94644536 369.49278822 -855.45629883 364.02124023 C-853.57452976 362.14483025 -851.69816512 360.26313531 -849.82226562 358.38085938 C-844.3886181 352.94451146 -838.96561089 347.56775657 -833.10717773 342.58422852 C-830.78288233 340.5771244 -828.64916435 338.40235122 -826.5078125 336.203125 C-823.03873119 332.69719458 -819.50501923 329.37513237 -815.7578125 326.171875 C-813.41876458 324.12520807 -811.14684727 322.01875355 -808.87573242 319.89746094 C-803.46676956 314.84605701 -797.95170415 310.04032378 -792.17578125 305.40625 C-789.42391712 303.13384682 -786.81043107 300.75617669 -784.1953125 298.328125 C-779.58430841 294.08442707 -774.78650014 290.20365496 -769.83398438 286.375 C-765.85996174 283.29416161 -762.00451888 280.10977499 -758.1953125 276.828125 C-751.97548724 271.49412185 -745.49697459 266.53704313 -738.96484375 261.59375 C-735.19922654 258.74158689 -731.47902965 255.83561555 -727.76635742 252.91503906 C-719.91307896 246.74515172 -711.91696706 240.85822105 -703.71875 235.15625 C-701.00652839 233.26700456 -698.32573072 231.34534859 -695.671875 229.375 C-679.77765496 217.60179398 -663.09852071 206.95856998 -646.5078125 196.203125 C-645.51507324 195.55891602 -644.52233398 194.91470703 -643.49951172 194.25097656 C-568.33697829 145.65313369 -486.88880127 105.73186087 -391.5078125 71.203125 C-390.80648193 70.95473877 -390.10515137 70.70635254 -389.38256836 70.45043945 C-302.12099856 39.55959252 -211.48274316 18.4484666 -42.5078125 1.203125 C-41.38094465 1.13534536 -41.38094465 1.13534536 -40.2313118 1.06619644 C-26.81628503 0.27865121 -13.43629215 0.02526003 0 0 Z " fill="#1A73E7" transform="translate(1221.5078125,-0.203125)"/>
<path d="M0 0 C2.07998583 -0.00313281 4.15997001 -0.00757908 6.23995057 -0.0132131 C11.95471094 -0.02488511 17.66931907 -0.01791067 23.38407694 -0.00787924 C29.60188127 -0.00026678 35.81966233 -0.01004987 42.03746337 -0.01760924 C52.9350298 -0.02844675 63.83254381 -0.02821545 74.73011112 -0.02046776 C86.42055726 -0.01220707 98.11097727 -0.01047854 109.80142498 -0.01667976 C110.90998436 -0.01726104 110.90998436 -0.01726104 112.04093888 -0.01785406 C115.0510727 -0.01945392 118.06120649 -0.02110005 121.07134026 -0.02280489 C149.09632621 -0.038666 177.12129465 -0.03975184 205.14628315 -0.03136253 C205.97643539 -0.03111415 206.80658762 -0.03086576 207.66189599 -0.03060985 C208.49338425 -0.03036106 209.32487251 -0.03011227 210.18155739 -0.02985594 C235.51848383 -0.02228494 260.85540303 -0.02033287 286.19233036 -0.02392387 C287.88933514 -0.02415631 289.58633991 -0.02438778 291.28334469 -0.02461828 C298.10310883 -0.0255497 304.92287297 -0.02650571 311.74263711 -0.02749758 C330.80751187 -0.03024865 349.87238665 -0.03196042 368.93726158 -0.03285599 C369.80545403 -0.03289692 370.67364648 -0.03293786 371.5681478 -0.03298004 C399.2339375 -0.03420793 426.89972469 -0.03082707 454.56551361 -0.02430725 C455.46284293 -0.0240965 456.36017225 -0.02388576 457.28469337 -0.02366862 C471.85640114 -0.02023385 486.42810886 -0.01657542 500.99981658 -0.0128981 C558.76384236 0.0016637 616.52784729 0.00100098 674.29187298 -0.01358986 C688.84315934 -0.01725357 703.3944457 -0.02088679 717.94573212 -0.02430725 C718.84176335 -0.0245186 719.73779458 -0.02472994 720.66097828 -0.02494769 C748.28819878 -0.03141935 775.91541754 -0.03415845 803.54263878 -0.03285599 C804.41034077 -0.03281523 805.27804276 -0.03277448 806.17203876 -0.03273249 C825.22254666 -0.03179491 844.27305438 -0.02989372 863.3235621 -0.02712448 C870.14067487 -0.02613709 876.95778764 -0.02519784 883.77490042 -0.02427235 C885.47076915 -0.02404018 887.16663787 -0.02380399 888.8625066 -0.02356376 C914.1837542 -0.0199867 939.50499364 -0.02302518 964.82624022 -0.03060985 C965.6554817 -0.03085823 966.48472319 -0.03110662 967.33909321 -0.03136253 C968.16679999 -0.03161058 968.99450678 -0.03185863 969.84729558 -0.03211419 C997.80428747 -0.04040067 1025.76125838 -0.03732135 1053.71824727 -0.0215203 C1056.72476089 -0.01986334 1059.73127453 -0.01825321 1062.7377882 -0.01667976 C1063.47561154 -0.01628914 1064.21343488 -0.01589852 1064.97361651 -0.01549607 C1076.62449894 -0.00959457 1088.27535514 -0.01368187 1099.92623519 -0.02198678 C1111.40161595 -0.02995148 1122.87693886 -0.02683393 1134.35231682 -0.01294452 C1140.48285447 -0.00582571 1146.61329346 -0.00333149 1152.74382792 -0.01416247 C1158.33452461 -0.02393856 1163.92503624 -0.01961499 1169.51571976 -0.00462049 C1171.51256558 -0.00162942 1173.50942715 -0.0035157 1175.50626028 -0.0112383 C1210.72723345 -0.13765242 1245.82292669 6.613711 1277.49231243 22.37752342 C1278.66116985 22.95373436 1278.66116985 22.95373436 1279.85364056 23.54158592 C1301.32119368 34.21510873 1320.2003018 47.80230886 1337.49231243 64.37752342 C1338.02211712 64.88009666 1338.55192181 65.38266991 1339.09778118 65.90047264 C1347.40145676 73.81213979 1354.6420179 82.18776788 1361.49231243 91.37752342 C1362.21160931 92.32498436 1362.93090618 93.2724453 1363.67199993 94.24861717 C1379.29636441 115.19256099 1390.58507794 138.54320156 1398.49231243 163.37752342 C1398.88821575 164.60535545 1398.88821575 164.60535545 1399.29211712 165.85799217 C1406.73473291 189.52169365 1408.09610261 214.44627153 1407.98678875 239.078619 C1407.9899756 241.73483458 1407.99474958 244.39100562 1408.00142157 247.04721051 C1408.01264923 252.76148693 1408.00943643 258.47560304 1407.99605083 264.18987274 C1407.97620153 272.68735205 1407.97973441 281.18471681 1407.98755143 289.68221007 C1408.00003061 303.98953365 1407.99384056 318.29679089 1407.97636318 332.6041069 C1407.95907322 346.76165635 1407.94932431 360.91917596 1407.94969845 375.07673645 C1407.94972138 376.40280034 1407.94972138 376.40280034 1407.94974478 377.75565339 C1407.94982661 381.34495614 1407.94995785 384.93425888 1407.95015641 388.52356162 C1407.95196427 422.12001834 1407.93214203 455.71642978 1407.90129708 489.31287079 C1407.87402784 519.1245487 1407.86157583 548.93619448 1407.8629179 578.74788475 C1407.86299872 580.66391296 1407.86307944 582.57994117 1407.86316006 584.49596938 C1407.86320076 585.4432466 1407.86324146 586.39052383 1407.8632834 587.36650642 C1407.86348501 592.13555294 1407.86366617 596.90459946 1407.86382389 601.67364597 C1407.86385732 602.6146296 1407.86389074 603.55561323 1407.86392518 604.52511152 C1407.86465616 629.48782545 1407.85557199 654.45053539 1407.84317076 679.41324598 C1407.84273022 680.30159827 1407.84228967 681.18995057 1407.84183578 682.10522264 C1407.84005948 685.67694742 1407.83828265 689.24867219 1407.83645387 692.82039694 C1407.8301477 705.21887354 1407.82711715 717.61734697 1407.82623089 730.01582506 C1407.8250346 745.98896845 1407.81700307 761.96208541 1407.79736798 777.93521752 C1407.78717434 786.37215323 1407.78230707 794.80905021 1407.78536034 803.24599176 C1407.78683735 808.89177214 1407.78096161 814.53751505 1407.76927272 820.18328342 C1407.76282102 823.39264149 1407.76045301 826.60190401 1407.76479392 829.81126799 C1407.82264459 877.92789804 1396.22910279 925.87163527 1367.49231243 965.37752342 C1366.79750774 966.3443203 1366.10270306 967.31111717 1365.38684368 968.30721092 C1349.94914633 989.34619669 1331.9080936 1008.37797828 1310.49231243 1023.37752342 C1309.87614056 1023.81709373 1309.25996868 1024.25666405 1308.62512493 1024.70955467 C1292.14833659 1036.4130245 1274.47954285 1045.50479515 1255.49231243 1052.37752342 C1254.80266399 1052.62727928 1254.11301556 1052.87703514 1253.40246868 1053.13435936 C1249.13106493 1054.65895446 1244.82824851 1056.04892354 1240.49231243 1057.37752342 C1239.38887493 1057.72428123 1238.28543743 1058.07103905 1237.14856243 1058.42830467 C1213.38754411 1065.35860168 1189.46223078 1065.96875196 1164.94085789 1065.88519228 C1160.32628988 1065.87399555 1155.71176874 1065.88634763 1151.09720439 1065.89549977 C1143.03472895 1065.90832465 1134.97236379 1065.90650458 1126.90988827 1065.89472008 C1114.92034041 1065.87724409 1102.93087829 1065.88287126 1090.94132583 1065.89288699 C1069.52174503 1065.91003198 1048.1022156 1065.90456818 1026.6826359 1065.8895298 C1007.9393928 1065.87645587 989.19616749 1065.87128633 970.45291996 1065.87384796 C969.20756026 1065.87400838 967.96220057 1065.87416879 966.6791027 1065.87433407 C961.62326894 1065.8749977 956.56743519 1065.87570012 951.51160145 1065.87645941 C916.2510606 1065.88168109 880.99052494 1065.87976031 845.7299881 1065.86148548 C844.73447934 1065.86097033 844.73447934 1065.86097033 843.71885928 1065.86044476 C832.94303346 1065.85484695 822.16720781 1065.84891234 811.39138218 1065.8429557 C768.65263586 1065.81935245 725.91392525 1065.81316337 683.17517376 1065.82356834 C680.47372434 1065.82422155 677.77227492 1065.82487287 675.07082549 1065.82552385 C674.06891922 1065.8257654 674.06891922 1065.8257654 673.04677241 1065.82601183 C665.64878365 1065.82779148 658.25079488 1065.82951362 650.85280609 1065.83116627 C650.1893039 1065.83131563 649.52580171 1065.831465 648.84219339 1065.83161889 C612.9836757 1065.83962698 577.12516118 1065.83347093 541.26664466 1065.82247025 C537.47888993 1065.82132249 533.69113519 1065.82017931 529.90338046 1065.81904342 C527.39088294 1065.81828818 524.87838543 1065.81752253 522.36588793 1065.81674642 C503.63596544 1065.81109636 484.90605186 1065.81241241 466.17612934 1065.81697464 C444.87418881 1065.82208974 423.57228155 1065.81619703 402.2703493 1065.79608034 C390.35959842 1065.78512061 378.44891297 1065.78227611 366.53816014 1065.79136888 C358.57034475 1065.79660913 350.60258507 1065.79083672 342.63478134 1065.77631553 C338.10321983 1065.76835332 333.57178999 1065.76491736 329.04022942 1065.77488809 C306.20193634 1065.82111181 283.57678025 1065.56538346 261.42981243 1059.25252342 C260.35674847 1058.95394432 259.2836845 1058.65536522 258.17810345 1058.34773827 C227.68959722 1049.55708423 200.14652909 1034.03048012 176.83215618 1012.52986717 C174.52800659 1010.41035728 172.17235809 1008.36317 169.80481243 1006.31502342 C165.64592922 1002.60535756 162.02456128 998.68245171 158.49231243 994.37752342 C158.06047649 993.85803123 157.62864056 993.33853905 157.18371868 992.80330467 C131.12522599 961.37775116 112.43485859 923.56098737 105.91811597 883.01859283 C105.64907209 881.34983367 105.37217686 879.68230445 105.08435309 878.01668167 C101.32797105 855.7109228 102.14119398 833.10453536 102.26479924 810.5708642 C102.29451918 804.50399617 102.30606608 798.43709107 102.31936932 792.37016869 C102.34259425 782.55822233 102.37332508 772.74632791 102.41023054 762.93442455 C102.47223858 746.35988923 102.50020024 729.78541801 102.51685096 713.21078111 C102.52044999 709.67007712 102.5243587 706.12937347 102.52823991 702.58866978 C102.52979708 701.16189402 102.53135306 699.73511827 102.53290788 698.30834252 C102.53406656 697.24586772 102.53406656 697.24586772 102.53524865 696.16192878 C102.5375863 694.00803543 102.53989193 691.85414205 102.54219424 689.70024866 C102.55957934 673.54741934 102.58155528 657.39459859 102.60779095 641.24178123 C102.60897539 640.50470102 102.61015983 639.76762081 102.61138017 639.00820483 C102.65008041 615.09897684 102.72665841 591.19002506 102.81959294 567.28095283 C102.91514317 542.63061633 102.96369738 517.98057681 102.95711016 493.33004775 C102.9562188 489.84236343 102.95590256 486.35467929 102.95596027 482.86699486 C102.95596055 482.1807677 102.95596082 481.49454055 102.9559611 480.78751863 C102.95741391 469.79821096 103.00841667 458.80967951 103.07911995 447.8206223 C103.14933354 436.7610196 103.16730779 425.70213686 103.13662233 414.64233232 C103.12159996 408.66364374 103.12870391 402.68726404 103.19818974 396.70890999 C103.93794806 362.74889716 103.93794806 362.74889716 89.34330142 332.91432667 C86.006166 328.3407414 83.32786996 323.36817366 80.55481243 318.44002342 C79.38827515 316.44569585 78.22070302 314.45197207 77.05090618 312.45955467 C67.7195827 296.53323788 58.55900138 280.50782377 49.41522503 264.47334862 C44.81855805 256.41525421 40.17917443 248.38352251 35.49231243 240.37752342 C30.46050553 231.78229671 25.48842171 223.15440212 20.55481243 214.50252342 C13.52627736 202.17727147 6.44990809 189.88030275 -0.64880085 177.59529686 C-3.77093362 172.19081697 -6.88909961 166.7840493 -10.00768757 161.37752342 C-11.25766878 159.21084592 -12.50766878 157.04417925 -13.75768757 154.87752342 C-21.25768757 141.87752342 -21.25768757 141.87752342 -23.13415241 138.62483788 C-24.37910038 136.46702539 -25.62421647 134.3093099 -26.86950397 132.15169334 C-30.07321408 126.6003575 -33.27362387 121.04715801 -36.46862507 115.49080467 C-44.46583558 101.57202903 -44.46583558 101.57202903 -52.63268757 87.75252342 C-52.98862995 87.15737938 -53.34457233 86.56223534 -53.71130085 85.94905663 C-55.4727757 83.023369 -57.32323677 80.19019114 -59.25768757 77.37752342 C-62.88622628 71.6827335 -64.58242162 64.80494976 -66.50768757 58.37752342 C-66.71264851 57.71365623 -66.91760944 57.04978905 -67.12878132 56.36580467 C-69.37995105 44.55296555 -67.05063053 33.78280353 -60.75768757 23.69002342 C-59.70361217 22.23093384 -58.61999996 20.792719 -57.50768757 19.37752342 C-56.97917194 18.69947655 -56.45065632 18.02142967 -55.90612507 17.32283592 C-51.83941735 12.71867784 -47.22135103 9.84406931 -41.82018757 7.06502342 C-41.19773151 6.73945457 -40.57527546 6.41388573 -39.9339571 6.07845116 C-27.09889125 -0.14181822 -13.91654106 -0.05306862 0 0 Z " fill="#FEFEFE" transform="translate(523.5076875686646,737.6224765777588)"/>
<path d="M0 0 C1.43529174 -0.00195558 2.87058293 -0.00434543 4.3058733 -0.00712797 C8.24919601 -0.0135053 12.19249827 -0.01369141 16.13582514 -0.01285056 C20.42639304 -0.01302051 24.71695372 -0.01893167 29.00751799 -0.02409142 C37.51708106 -0.0334067 46.02663893 -0.03733766 54.53620645 -0.03961039 C64.72935018 -0.04257525 74.92248702 -0.0512743 85.11562713 -0.06002467 C109.75206079 -0.08085822 134.38849563 -0.09133706 159.02493605 -0.10015428 C170.68177522 -0.10436224 182.33861388 -0.10958402 193.99545263 -0.11483881 C233.90511695 -0.13272784 273.81478142 -0.14772356 313.72444916 -0.155159 C316.22947796 -0.15563375 318.73450675 -0.15610964 321.23953555 -0.15658666 C323.10291901 -0.15694122 323.10291901 -0.15694122 325.00394657 -0.15730295 C331.29771664 -0.15850413 337.5914867 -0.15971959 343.88525677 -0.16094494 C345.13426863 -0.16118509 346.38328049 -0.16142524 347.6701412 -0.16167267 C388.1632303 -0.16956504 428.65629012 -0.19299622 469.14936643 -0.22550088 C511.9699372 -0.25981107 554.79049084 -0.27951122 597.61107558 -0.28280324 C602.31327038 -0.28322077 607.01546516 -0.28370033 611.71765995 -0.28422642 C613.45435438 -0.28441121 613.45435438 -0.28441121 615.22613356 -0.28459973 C633.84533223 -0.28693021 652.46449683 -0.30258163 671.08368337 -0.32306826 C689.80496886 -0.34334017 708.52621348 -0.34879708 727.24750791 -0.33929763 C738.3634343 -0.33408809 749.47922451 -0.33993436 760.59513126 -0.3618323 C768.02990028 -0.37536906 775.46457586 -0.37423803 782.89934587 -0.36143034 C787.12926139 -0.35455289 791.3589171 -0.35379779 795.58880911 -0.37099043 C825.00381703 -0.48306411 851.34507564 0.87715949 874.09546185 21.88422108 C884.29037499 32.56061882 888.38414403 44.876633 888.33789349 59.30829334 C887.88564837 72.82070109 880.92142184 84.42995011 871.84546185 94.13422108 C855.18587222 107.71540827 836.01762657 113.79529457 814.68954086 113.6292057 C813.23081964 113.63247809 811.77210152 113.63750498 810.31339154 113.64409956 C806.33759775 113.65707406 802.3622143 113.64544247 798.38644577 113.62948721 C794.04881512 113.61655488 789.7112277 113.62704097 785.37359279 113.63446301 C777.78225099 113.64426408 770.19103205 113.6392987 762.59969997 113.62450123 C751.31132413 113.60255847 740.02303136 113.60365325 728.7346398 113.6093355 C709.7407778 113.61822795 690.74696857 113.60840498 671.75311756 113.58770657 C652.94603953 113.56724421 634.13898432 113.55465263 615.33189487 113.55266857 C614.16145146 113.55253874 612.99100804 113.5524089 611.78509664 113.55227514 C607.03386143 113.55177518 602.28262623 113.55133522 597.53139102 113.55097305 C554.24845197 113.54767143 510.9655447 113.52533461 467.68262005 113.49091053 C426.82031414 113.45842715 385.95802427 113.43717526 345.09570599 113.42938709 C343.83638667 113.42914405 342.57706736 113.42890101 341.27958686 113.4286506 C334.93667218 113.42742853 328.59375749 113.42622523 322.25084281 113.42502881 C320.37335896 113.42467441 320.37335896 113.42467441 318.45794615 113.42431284 C315.93403225 113.42383867 313.41011836 113.42336851 310.88620446 113.42290238 C270.7088958 113.41543105 230.5315901 113.39965523 190.3542849 113.3817032 C178.59056153 113.3764576 166.82683821 113.37151369 155.0631144 113.36734128 C130.32711139 113.3584632 105.59111575 113.34681748 80.85511971 113.32577524 C70.62427187 113.31713528 60.39342894 113.30996704 50.16257763 113.30725956 C41.68285358 113.30500843 33.20314035 113.29945445 24.72342186 113.28934956 C20.45305476 113.28435367 16.18270216 113.28091719 11.91233189 113.28181938 C8.0271388 113.28260002 4.1419782 113.27879022 0.25679245 113.27132636 C-1.1394996 113.26944123 -2.53579514 113.26921661 -3.93208748 113.2708643 C-26.25878068 113.29430806 -46.23177327 108.04473045 -62.49047565 91.95843983 C-73.24161607 80.56096986 -77.52724747 68.22681571 -77.36547565 52.69672108 C-76.55932254 39.08169066 -68.85112903 27.31219364 -59.15453815 18.13422108 C-41.77164424 3.74837784 -21.93750241 -0.02471888 0 0 Z " fill="#8AB4F8" transform="translate(874.154538154602,965.8657789230347)"/>
<path d="M0 0 C1.44453425 -0.00134802 2.88906815 -0.00313269 4.33360139 -0.00531223 C8.30253385 -0.01003197 12.27144331 -0.0085439 16.24037688 -0.00603446 C20.55858431 -0.0043995 24.87678686 -0.00854379 29.19499272 -0.01194364 C36.76315289 -0.01709596 44.33130667 -0.01851513 51.89946842 -0.01748753 C63.15368991 -0.01596316 74.40790431 -0.0201231 85.66212442 -0.02536215 C106.93091407 -0.03503647 128.19970131 -0.03784642 149.4684929 -0.03841921 C165.89123254 -0.0388786 182.31397122 -0.04093618 198.73671055 -0.04411983 C203.46253353 -0.04501736 208.18835652 -0.04590718 212.9141795 -0.04679471 C214.0890008 -0.04701576 215.2638221 -0.04723681 216.47424404 -0.04746456 C249.52240803 -0.05361926 282.57057168 -0.05756506 315.61873627 -0.05712128 C316.8648907 -0.0571057 318.11104513 -0.05709012 319.39496182 -0.05707407 C325.71111988 -0.05699096 332.02727793 -0.05689192 338.34343598 -0.05678936 C339.59786869 -0.05676942 340.8523014 -0.05674947 342.14474723 -0.05672892 C344.68151547 -0.05668848 347.2182837 -0.05664669 349.75505194 -0.05660353 C389.2304717 -0.05599066 428.70588286 -0.06349928 468.18130016 -0.07717609 C512.52181296 -0.09253212 556.86232011 -0.10114262 601.20283574 -0.10021287 C605.92960179 -0.10013824 610.65636784 -0.10008953 615.38313389 -0.10005856 C616.54700216 -0.1000469 617.71087044 -0.10003525 618.91000745 -0.10002324 C637.64979254 -0.09999245 656.38957017 -0.10638167 675.12935304 -0.11499082 C693.95803275 -0.123462 712.78670155 -0.12446143 731.61538211 -0.1178815 C742.80404805 -0.1141824 753.99268087 -0.11602896 765.18134331 -0.12582384 C772.65439146 -0.13181377 780.12741556 -0.13053937 787.6004626 -0.12335334 C791.85874438 -0.11946353 796.11696197 -0.11872011 800.37523929 -0.12681069 C804.25307512 -0.13411393 808.13079356 -0.13212444 812.00862424 -0.12288683 C814.05202482 -0.12036762 816.09543043 -0.12760923 818.13881806 -0.13530961 C828.71890542 -0.09454506 838.86204145 0.91837269 848.76064587 4.81613445 C849.43216686 5.07523602 850.10368786 5.33433758 850.79555798 5.6012907 C867.05439356 12.0916896 879.64649877 22.04575345 887.01845837 38.2575407 C891.11648411 48.5888793 891.13686658 60.55624043 887.76064587 71.12863445 C887.50412243 71.9381657 887.24759899 72.74769695 886.98330212 73.58175945 C884.66675022 80.06412785 881.28330992 84.97916195 876.76064587 90.12863445 C876.24888805 90.73449383 875.73713024 91.3403532 875.20986462 91.96457195 C862.56558766 105.83248861 842.5613481 112.33640157 824.30542313 113.31358115 C820.56835746 113.38578047 816.83604583 113.39765189 813.09829903 113.38590336 C811.65663868 113.38860263 810.21497975 113.39217377 808.77332345 113.39652783 C804.83094557 113.40592413 800.88866085 113.40300536 796.94627859 113.39797228 C792.64980278 113.39469109 788.35334627 113.40300026 784.05687672 113.40979064 C776.53284257 113.42007728 769.00883415 113.42293675 761.48479366 113.42087841 C750.29582165 113.41782496 739.10687804 113.42616004 727.91791155 113.43662766 C706.76974115 113.45595993 685.62158045 113.4615956 664.47340225 113.46274178 C648.13997529 113.46366122 631.80655214 113.46777976 615.47312641 113.47414303 C610.76982421 113.47593815 606.06652201 113.47771777 601.3632198 113.47949278 C600.19392938 113.47993488 599.02463896 113.48037698 597.8199155 113.48083247 C564.93393789 113.49313929 532.0479616 113.50103376 499.16198158 113.50014591 C497.92234154 113.50011475 496.6827015 113.5000836 495.40549661 113.5000515 C489.12263521 113.49988528 482.83977381 113.4996872 476.55691241 113.49948208 C475.30913746 113.49944219 474.06136251 113.4994023 472.77577619 113.4993612 C470.25247136 113.49928033 467.72916653 113.49919673 465.20586171 113.49911042 C425.95124044 113.49788503 386.69665373 113.5128965 347.44204235 113.54025555 C303.32848571 113.57098851 259.21495177 113.58818731 215.10138375 113.5863291 C210.39588106 113.58617984 205.69037837 113.58608243 200.98487568 113.58602047 C199.24698552 113.58598551 199.24698552 113.58598551 197.47398647 113.58594984 C178.84385205 113.58588834 160.21374767 113.59865021 141.58362217 113.615885 C122.85386038 113.63285338 104.12414246 113.63480586 85.39437722 113.62166636 C74.27398951 113.61428529 63.15373523 113.61790998 52.0333617 113.63755104 C44.5957561 113.64957515 37.15824686 113.64693298 29.72064563 113.63261004 C25.48918448 113.62486758 21.25798101 113.62323547 17.0265383 113.63952474 C-26.08367255 113.79460332 -26.08367255 113.79460332 -43.23935413 104.12863445 C-44.49038929 103.46734539 -44.49038929 103.46734539 -45.76669788 102.79269695 C-55.68438854 97.26079554 -63.60714048 90.01157538 -69.23935413 80.12863445 C-69.62865101 79.47121258 -70.01794788 78.8137907 -70.41904163 78.13644695 C-76.34485043 67.36618132 -76.91084325 54.20429037 -73.67685413 42.50363445 C-68.06933033 26.2300514 -56.47778447 15.42757482 -41.44638538 7.69113445 C-27.71384326 1.18318783 -15.04333978 -0.02428781 0 0 Z " fill="#8AB4F8" transform="translate(872.239354133606,1192.8713655471802)"/>
<path d="M0 0 C0.33 0 0.66 0 1 0 C1.07759406 7.49911677 1.12922787 14.99812622 1.16479492 22.49755859 C1.17965929 25.03600937 1.19995658 27.57443556 1.22631836 30.11279297 C1.46046107 53.27914836 0.63541863 76.64270171 -6 99 C-6.42877441 100.4543042 -6.42877441 100.4543042 -6.86621094 101.93798828 C-15.8287297 131.71828098 -29.30767765 158.87612492 -49 183 C-49.80308594 184.00675781 -50.60617187 185.01351563 -51.43359375 186.05078125 C-62.40890165 199.58593391 -74.97462026 212.61931078 -89 223 C-89.89307861 223.66708984 -89.89307861 223.66708984 -90.80419922 224.34765625 C-123.91608339 248.92960441 -161.05897474 264.73785011 -202 270 C-202.69124686 270.08932612 -203.38249372 270.17865224 -204.09468745 270.27068521 C-211.70811976 271.14241521 -219.29054658 271.14048145 -226.9446888 271.12863445 C-228.4539843 271.1299827 -229.96327946 271.1317675 -231.472574 271.13394669 C-235.61668354 271.13866337 -239.76077103 271.13717934 -243.90488164 271.13466892 C-248.41478178 271.13303316 -252.92467726 271.13717891 -257.43457592 271.14057809 C-265.33787237 271.14572916 -273.24116271 271.1471498 -281.14446068 271.14612198 C-292.89722197 271.14459727 -304.64997649 271.14875833 -316.40273646 271.1539966 C-338.61481961 271.16367 -360.82690044 271.16648084 -383.03898545 271.16705366 C-400.1920254 271.16751313 -417.34506444 271.16957105 -434.4981041 271.17275429 C-439.43480043 271.17365183 -444.37149676 271.17454164 -449.30819309 271.17542917 C-451.1490883 271.17576074 -451.1490883 271.17576074 -453.02717331 271.17609901 C-487.55035791 271.18225366 -522.0735422 271.18619953 -556.59672737 271.18575573 C-557.8984636 271.18574015 -559.20019984 271.18572457 -560.54138262 271.18570852 C-567.13918687 271.18562541 -573.73699112 271.18552637 -580.33479537 271.18542381 C-581.64515266 271.18540387 -582.95550995 271.18538392 -584.30557504 271.18536337 C-586.95543727 271.18532294 -589.6052995 271.18528114 -592.25516174 271.18523798 C-633.48293687 271.18462522 -674.71070378 271.1921317 -715.93847656 271.20581055 C-762.25340325 271.22117089 -808.56832454 271.2297768 -854.88325393 271.22884732 C-859.82183639 271.22877269 -864.76041885 271.22872399 -869.69900131 271.22869301 C-871.52301901 271.22867553 -871.52301901 271.22867553 -873.38388556 271.22865769 C-892.95316656 271.22862692 -912.52244043 271.23501295 -932.09171931 271.24362527 C-951.75938141 271.25210187 -971.42703308 271.25309165 -991.094696 271.24651595 C-1002.77798352 271.24282036 -1014.46123931 271.24465297 -1026.14452346 271.25445829 C-1033.95234251 271.26045726 -1041.76013857 271.25916372 -1049.56795656 271.25198779 C-1054.014145 271.24810562 -1058.46027202 271.2473326 -1062.90645613 271.25544515 C-1066.9594639 271.26277534 -1071.01235966 271.2607277 -1075.06536262 271.25152128 C-1076.51455903 271.24981439 -1077.96376445 271.25138053 -1079.41295165 271.25682249 C-1128.79721663 271.42969621 -1179.44416532 251.84305179 -1217 220 C-1218.15428689 219.04737556 -1219.30925118 218.0955714 -1220.46484375 217.14453125 C-1232.8257473 206.86940206 -1244.13336101 195.70895518 -1254 183 C-1255.16208984 181.58074219 -1255.16208984 181.58074219 -1256.34765625 180.1328125 C-1267.61149719 166.10210096 -1276.40498943 150.27061207 -1284 134 C-1284.50789063 132.93652344 -1285.01578125 131.87304688 -1285.5390625 130.77734375 C-1300.56583499 97.71040857 -1304.42268599 63.9729792 -1304.125 28.0625 C-1304.11492785 25.90299905 -1304.10580965 23.74349343 -1304.09765625 21.58398438 C-1304.07602925 16.38920353 -1304.04174478 11.1946565 -1304 6 C-1302.02222539 8.96666192 -1301.63368882 10.21875297 -1301.140625 13.62109375 C-1300.99786133 14.54615723 -1300.85509766 15.4712207 -1300.70800781 16.42431641 C-1300.55686523 17.41866699 -1300.40572266 18.41301758 -1300.25 19.4375 C-1296.25019997 43.79818686 -1287.67729443 67.27736541 -1276 89 C-1275.48034668 89.98709961 -1275.48034668 89.98709961 -1274.95019531 90.99414062 C-1263.40363927 112.86181766 -1247.26629818 134.34814972 -1228 150 C-1227.4848584 150.42748535 -1226.9697168 150.8549707 -1226.43896484 151.29541016 C-1200.87169395 172.49981248 -1172.51457687 187.46479618 -1140.125 195.4375 C-1139.17657227 195.67251221 -1138.22814453 195.90752441 -1137.25097656 196.1496582 C-1122.94416328 199.43652312 -1108.40594786 200.30227461 -1093.77089691 200.25726891 C-1092.2194884 200.25997117 -1090.66808122 200.26354397 -1089.11667645 200.26789337 C-1084.89284953 200.27724955 -1080.66911 200.27438426 -1076.44527908 200.26933783 C-1071.83492589 200.26604607 -1067.22459041 200.27437446 -1062.61424303 200.28115618 C-1054.54668745 200.29142598 -1046.47915586 200.29430525 -1038.41159439 200.29224396 C-1026.41417468 200.28918611 -1014.41678138 200.29753525 -1002.41936681 200.30799321 C-979.741569 200.32730952 -957.06378025 200.33296054 -934.38597518 200.33410732 C-916.86946224 200.33502731 -899.35295283 200.33914868 -881.83644104 200.34550858 C-876.78966411 200.34730373 -871.74288718 200.34908336 -866.69611025 200.35085833 C-865.44137591 200.35130043 -864.18664156 200.35174252 -862.89388497 200.35219802 C-827.61264482 200.36450204 -792.33140562 200.37241138 -757.05016327 200.37151146 C-755.70723803 200.3714799 -754.36431279 200.37144843 -753.02138755 200.37141704 C-746.95873693 200.37127028 -740.89608632 200.37109395 -734.8334357 200.37090927 C-732.1301693 200.37082703 -729.4269029 200.37074673 -726.7236365 200.37066665 C-725.37060601 200.37062586 -724.01757552 200.37058382 -722.66454503 200.37054053 C-679.89256015 200.36918044 -637.12060841 200.38381073 -594.34863281 200.41162109 C-583.5728837 200.41862374 -572.79713456 200.42556292 -562.02138519 200.43214989 C-561.35778446 200.43255564 -560.69418372 200.43296138 -560.01047387 200.43337943 C-524.1343053 200.45518232 -488.25813493 200.45910292 -452.38196039 200.45769465 C-447.33266862 200.45754539 -442.28337685 200.45744798 -437.23408508 200.45738602 C-435.36926749 200.45735105 -435.36926749 200.45735105 -433.46677681 200.45731538 C-413.4907748 200.45725393 -393.51480085 200.47000644 -373.53880718 200.48725055 C-353.45074108 200.50423235 -333.36271589 200.50616092 -313.27464658 200.4930319 C-301.35343377 200.48565989 -289.43234551 200.48924835 -277.51114598 200.50891658 C-269.53225199 200.52096403 -261.55344766 200.51827285 -253.57455769 200.50397559 C-249.03895156 200.49625267 -244.50358546 200.49454357 -239.96799678 200.51089029 C-215.11999371 200.59463682 -190.91797986 199.53066102 -167 192 C-166.24009766 191.76974121 -165.48019531 191.53948242 -164.69726562 191.30224609 C-117.76094348 177.01368287 -74.98515786 147.89279229 -46 108 C-45.23429687 106.95585938 -44.46859375 105.91171875 -43.6796875 104.8359375 C-23.61827091 76.66607379 -7.82415187 43.05557086 -3.43359375 8.51953125 C-2.86287881 5.20321473 -1.78067289 2.83288868 0 0 Z " fill="#185ABC" transform="translate(1931,1602)"/>
<path d="M0 0 C0.89790849 -0.00327219 1.79581697 -0.00654439 2.72093481 -0.00991574 C3.7053604 -0.00843212 4.689786 -0.00694849 5.70404267 -0.00541991 C6.75572131 -0.00777214 7.80739995 -0.01012437 8.89094764 -0.01254788 C12.44456324 -0.01924922 15.99814237 -0.01877931 19.55176377 -0.01836985 C22.11356411 -0.02166779 24.67536392 -0.0253932 27.23716307 -0.02951133 C33.55864396 -0.03884284 39.88011786 -0.04276031 46.20160478 -0.0450303 C53.77165674 -0.04799102 61.34169939 -0.05668779 68.91174648 -0.06544458 C87.21239837 -0.08629745 105.51305188 -0.09676088 123.81371289 -0.10557419 C132.47231074 -0.10978029 141.13090791 -0.11500239 149.78950518 -0.12025872 C179.43093287 -0.1381514 209.07236076 -0.15314642 238.71379304 -0.16057891 C240.57506206 -0.16105366 242.43633108 -0.16152955 244.29760011 -0.16200657 C245.22062281 -0.16224294 246.14364551 -0.16247932 247.09463859 -0.16272286 C251.77112254 -0.16392406 256.44760649 -0.16513951 261.12409043 -0.16636485 C262.05215374 -0.166605 262.98021705 -0.16684515 263.93640349 -0.16709258 C294.01448099 -0.17498239 324.09251902 -0.1984064 354.1705793 -0.23092079 C385.97260656 -0.26523598 417.77461074 -0.28493171 449.57665682 -0.28822315 C453.06952136 -0.28864068 456.56238588 -0.28912024 460.05525041 -0.28964633 C461.34530738 -0.28983111 461.34530738 -0.28983111 462.6614261 -0.29001964 C476.49026477 -0.29234979 490.31905754 -0.30799973 504.14787987 -0.32848817 C518.05617861 -0.34876694 531.96442236 -0.35421382 545.87273315 -0.34471754 C554.13005577 -0.33951022 562.38719501 -0.34534351 570.64449116 -0.36725221 C576.81953926 -0.38239418 582.9944026 -0.37648992 589.16944984 -0.36258169 C591.66085327 -0.36020356 594.15227445 -0.36453974 596.64365074 -0.37641034 C620.08538316 -0.48115031 642.62117124 2.92690113 660.80426621 19.30458242 C672.29253314 31.47016213 677.11729068 43.71008261 676.83551621 60.28505117 C675.72906255 74.06670186 669.0266967 85.60437426 659.09332871 94.99989492 C638.43132008 112.13961289 614.0456668 113.58628291 588.48335862 113.50975209 C585.95728564 113.51321304 583.43121416 113.51798053 580.90514582 113.52393383 C575.43494808 113.53381475 569.96487207 113.53447659 564.49467301 113.52679235 C556.3599652 113.51539648 548.2253318 113.52127114 540.09062441 113.53041727 C525.55774981 113.54618 511.02491488 113.54485905 496.49203655 113.53618053 C483.77317122 113.52862292 471.05432039 113.52666885 458.33545327 113.53024846 C457.06813736 113.5305922 457.06813736 113.5305922 455.77521911 113.53094287 C452.34525947 113.53187695 448.91529984 113.53283215 445.48534022 113.53382216 C413.33265637 113.5429919 381.17999773 113.53469047 349.02731778 113.51853147 C320.48656378 113.50429676 291.94584994 113.5055683 263.40509629 113.51991445 C231.31134796 113.53599275 199.21762188 113.5423402 167.12387007 113.53307766 C163.69998253 113.53211556 160.27609498 113.53117704 156.85220742 113.53024846 C155.58771058 113.52989262 155.58771058 113.52989262 154.29766834 113.52952958 C141.59017078 113.52612298 128.88268935 113.53009715 116.17519403 113.53768712 C101.71955305 113.54627838 87.2639578 113.54409177 72.8083225 113.52784489 C64.72670572 113.51906047 56.64518809 113.51842548 48.56357396 113.52978341 C42.51803792 113.53733985 36.47262922 113.52909627 30.42710083 113.51485969 C27.98987843 113.511522 25.55264268 113.51318301 23.11542893 113.52048706 C-3.12118432 113.59305368 -27.6383167 110.4943882 -47.47307754 91.69130117 C-58.0656104 80.38997428 -61.85887675 67.74765223 -61.68401504 52.46473867 C-60.88916556 39.89434142 -54.79780524 27.59820313 -45.47307754 19.12880117 C-33.97605427 10.20506452 -22.59452221 4.75698091 -8.47307754 1.12880117 C-7.84136503 0.95002214 -7.20965253 0.77124312 -6.55879723 0.58704655 C-4.30929383 0.09281688 -2.30234476 0.00220043 0 0 Z " fill="#8AB4F8" transform="translate(857.4730775356293,1420.8711988329887)"/>
<path d="M0 0 C1.04457241 -0.00282738 2.08914482 -0.00565475 3.16537094 -0.00856781 C8.72141506 -0.02344912 14.27743408 -0.03274152 19.83349609 -0.03710938 C24.30233161 -0.04144026 28.77096817 -0.0551361 33.23974609 -0.078125 C74.07132178 -0.28360871 114.73799897 1.29645186 155.3671875 5.515625 C156.39220367 5.61917297 157.41721985 5.72272095 158.47329712 5.82940674 C194.04789606 9.43149578 229.3638192 14.5382491 264.4921875 21.203125 C265.35247559 21.36598999 266.21276367 21.52885498 267.09912109 21.69665527 C312.2395266 30.2758378 356.62006686 41.56534936 400.4921875 55.203125 C401.78062561 55.60337891 401.78062561 55.60337891 403.09509277 56.01171875 C461.64651832 74.24800494 518.59931899 96.94925384 573.70751953 123.85351562 C577.36288442 125.62511453 581.03871935 127.35163123 584.71508789 129.07910156 C595.4784754 134.14818842 606.03423332 139.53210687 616.4921875 145.203125 C617.54374023 145.77272949 618.59529297 146.34233398 619.67871094 146.92919922 C645.43159587 160.91991396 670.74956737 175.58642169 695.49462891 191.29980469 C698.63986669 193.29689491 701.79071343 195.2849667 704.94140625 197.2734375 C716.2956444 204.4638587 727.45862597 211.82665521 738.36279297 219.68164062 C741.4953179 221.91987674 744.65961139 224.11168645 747.8215332 226.30810547 C764.0510143 237.59263006 779.87483758 249.36104536 795.41699219 261.57324219 C797.3898115 263.12271768 799.36615051 264.66757011 801.34375 266.2109375 C811.28440467 273.97823992 821.04567728 281.94252171 830.65429688 290.1171875 C834.08259495 293.02900413 837.55193065 295.88075977 841.0546875 298.703125 C846.12826243 302.83002706 850.92959892 307.20415058 855.72265625 311.6484375 C857.95137143 313.70426222 860.19986669 315.71929457 862.4921875 317.703125 C866.86015818 321.49351278 871.1105151 325.40983119 875.36328125 329.328125 C877.36643569 331.17318461 879.37993941 333.00388914 881.40234375 334.828125 C887.82330037 340.63550434 894.00469971 346.62996835 900.06567383 352.81347656 C903.10212943 355.89351765 906.18256769 358.83863488 909.46875 361.65234375 C913.6515601 365.26284368 917.38026207 369.20191227 921.1171875 373.265625 C926.32837847 378.87432647 931.60868222 384.38451457 937.0546875 389.765625 C941.06235023 393.73365695 944.95299691 397.71834145 948.59765625 402.02734375 C951.27300619 405.09985904 954.07814051 408.04649906 956.8671875 411.015625 C961.54903496 416.01534701 965.9674461 421.14291688 970.25 426.4921875 C972.73127504 429.492196 975.34124207 432.35425934 977.9921875 435.203125 C982.17176016 439.70580497 986.14390182 444.32722461 989.99609375 449.11328125 C991.88316773 451.44923668 993.78559478 453.76681197 995.70703125 456.07421875 C1002.74061915 464.52912205 1009.56053844 473.10702668 1016.19921875 481.875 C1019.05404547 485.64251268 1021.95876728 489.36867399 1024.87548828 493.08837891 C1030.8647288 500.73094157 1036.67002224 508.46102278 1042.23828125 516.41503906 C1043.55612166 518.2942959 1044.88259206 520.16721798 1046.2109375 522.0390625 C1048.73963534 525.60465569 1051.25739234 529.177804 1053.77050781 532.75439453 C1054.97670467 534.46995812 1056.18452496 536.1843809 1057.39355469 537.89794922 C1065.95783554 550.04498913 1074.25001276 562.29110579 1082.07421875 574.92773438 C1083.47859985 577.18132113 1084.90311562 579.42065532 1086.3359375 581.65625 C1104.71734086 610.37039489 1121.47219612 640.11828279 1137.4921875 670.203125 C1138.0608252 671.27046875 1138.62946289 672.3378125 1139.21533203 673.4375 C1147.65304655 689.33798798 1155.48148773 705.45096657 1162.94384766 721.83007812 C1164.40959094 725.023189 1165.90323967 728.20114932 1167.41015625 731.375 C1180.93122598 759.96592901 1192.70125024 789.48210948 1203.4921875 819.203125 C1203.75281982 819.92056885 1204.01345215 820.6380127 1204.28198242 821.37719727 C1232.1057342 898.1332259 1232.1057342 898.1332259 1234.3046875 917.953125 C1235.17971799 924.08557008 1236.64668703 929.97037537 1238.2421875 935.953125 C1243.76184736 956.66073578 1248.53785285 977.47573292 1252.74658203 998.48925781 C1253.23495837 1000.92186454 1253.72795092 1003.35355012 1254.22607422 1005.78417969 C1259.1454664 1029.7929167 1262.90885502 1053.96350251 1266.4921875 1078.203125 C1266.66878906 1079.39373535 1266.84539063 1080.5843457 1267.02734375 1081.81103516 C1267.96798798 1088.26313427 1268.77381688 1094.72266586 1269.4921875 1101.203125 C1269.57146484 1101.91404297 1269.65074219 1102.62496094 1269.73242188 1103.35742188 C1270.30598289 1108.51947098 1270.8609354 1113.68323439 1271.40029907 1118.84896851 C1271.58269077 1120.58982806 1271.76761482 1122.33042469 1271.95541382 1124.07070923 C1273.21503237 1135.82585799 1273.72429383 1147.38170961 1273.4921875 1159.203125 C1273.1621875 1159.203125 1272.8321875 1159.203125 1272.4921875 1159.203125 C1272.39196289 1158.14327393 1272.29173828 1157.08342285 1272.18847656 1155.99145508 C1270.20736196 1135.15019461 1268.004343 1114.40473392 1264.98339844 1093.68505859 C1264.47575698 1090.08665778 1264.01295076 1086.48489313 1263.5625 1082.87890625 C1261.41369773 1065.75791268 1258.54277776 1048.88728447 1255.22265625 1031.96435547 C1254.54111403 1028.45505086 1253.88560192 1024.94224861 1253.2421875 1021.42578125 C1250.68428322 1007.54330853 1247.57416988 993.8523272 1244.19140625 980.1484375 C1242.64843556 973.89203203 1241.20758204 967.61719052 1239.8046875 961.328125 C1237.90595271 952.89181228 1235.83335993 944.52885365 1233.4921875 936.203125 C1233.22567383 935.24792969 1232.95916016 934.29273438 1232.68457031 933.30859375 C1216.94378052 877.01612603 1197.99515107 821.74778214 1174.4921875 768.203125 C1173.98623047 767.04989746 1173.48027344 765.89666992 1172.95898438 764.70849609 C1165.47338781 747.71128032 1157.67820683 730.8755894 1149.4921875 714.203125 C1149.17509827 713.55563293 1148.85800903 712.90814087 1148.53131104 712.24102783 C1139.81587124 694.44597282 1130.87806508 676.88870034 1120.94042969 659.73681641 C1119.0880042 656.49600864 1117.31555432 653.21543097 1115.54492188 649.92944336 C1108.66277013 637.17760035 1101.10866096 624.8434144 1093.52001953 612.50488281 C1091.71962896 609.57344986 1089.92986572 606.63592729 1088.14453125 603.6953125 C1075.1120428 582.31672455 1061.01311096 561.594209 1046.4921875 541.203125 C1045.96351074 540.45836914 1045.43483398 539.71361328 1044.89013672 538.94628906 C1036.0321808 526.48800268 1026.8170629 514.31455809 1017.4921875 502.203125 C1016.88197754 501.40841797 1016.27176758 500.61371094 1015.64306641 499.79492188 C1004.11983857 484.79993214 992.13790775 470.20262719 979.86621094 455.81542969 C978.41828728 454.11640911 976.97478438 452.4136882 975.53125 450.7109375 C969.79873501 443.9668565 963.94759863 437.36086202 957.9375 430.86328125 C955.94057957 428.69091254 953.98390016 426.49773337 952.0546875 424.265625 C945.12579803 416.28740851 937.9310139 408.53753884 930.39111328 401.13452148 C928.70303775 399.41758068 927.15047498 397.66163746 925.6015625 395.8203125 C920.62845629 390.10067981 915.23397304 384.79563722 909.86791992 379.44848633 C908.05857817 377.64450415 906.25464431 375.83523835 904.45117188 374.02539062 C899.13097218 368.70244332 893.81090436 363.45373837 888.07788086 358.57055664 C885.93500126 356.7226323 883.96169274 354.7332304 881.9921875 352.703125 C878.70364222 349.37543037 875.32837126 346.24976059 871.77734375 343.20703125 C869.42740666 341.14631719 867.14185624 339.02838313 864.85791016 336.89526367 C859.45293428 331.84805097 853.94157955 327.04654992 848.171875 322.4140625 C845.35965435 320.0937755 842.67421487 317.67241366 839.9921875 315.203125 C834.66250113 310.30943554 829.12513955 305.741181 823.4921875 301.203125 C822.28568738 300.21708841 821.08000448 299.23005131 819.875 298.2421875 C809.8783024 290.0575801 799.72960693 282.08392094 789.4921875 274.203125 C788.22036621 273.22158447 788.22036621 273.22158447 786.92285156 272.22021484 C776.01664533 263.81175159 765.01726182 255.59429523 753.70361328 247.7421875 C751.30268872 246.07124155 748.91055704 244.38820261 746.51953125 242.703125 C736.60534148 235.72211074 726.63654818 228.84548751 716.4921875 222.203125 C715.84781738 221.77999023 715.20344727 221.35685547 714.53955078 220.92089844 C702.65848268 213.13088485 690.60877293 205.62053071 678.4921875 198.203125 C677.8410498 197.80416016 677.18991211 197.40519531 676.51904297 196.99414062 C655.89872186 184.39691676 634.84132443 172.51599463 613.4921875 161.203125 C611.93757813 160.37844727 611.93757813 160.37844727 610.3515625 159.53710938 C556.56543605 131.10261448 500.93425293 106.89443221 443.47802734 86.8972168 C440.60310478 85.89237234 437.73514561 84.86827618 434.8671875 83.84375 C421.91096223 79.23605931 408.82134984 75.13515424 395.65722656 71.16455078 C392.62578006 70.24370565 389.60115816 69.30352357 386.578125 68.35546875 C375.82675065 64.99891984 365.04746699 61.9929385 354.10302734 59.3293457 C349.05217182 58.09966138 344.03525416 56.81903187 339.04467773 55.36401367 C326.69933597 51.76481864 314.11484597 49.17892957 301.54499817 46.50280762 C297.3081195 45.59908917 293.07972598 44.66455643 288.85546875 43.703125 C268.00407141 39.00663532 246.93382665 35.57480872 225.85205078 32.09448242 C222.49349635 31.5392095 219.13785371 30.97082956 215.78466797 30.3840332 C204.5196515 28.42477964 193.23117164 27.01544901 181.8671875 25.765625 C179.93798631 25.55104315 178.00878713 25.33644318 176.07958984 25.12182617 C171.16475735 24.57762353 166.24898279 24.04250286 161.33276367 23.51098633 C158.61283862 23.21620115 155.89329798 22.91809214 153.17382812 22.61914062 C148.95132721 22.15643141 144.72760899 21.7066938 140.50274658 21.26608276 C138.98186456 21.10640669 137.46127665 20.94388561 135.94110107 20.77761841 C102.29425051 17.11816124 68.46274583 16.85068679 34.65673828 16.88745117 C30.0684219 16.89206401 25.48037185 16.8852064 20.89208984 16.86694336 C-21.5221339 16.70012183 -63.72534864 18.29233575 -105.8828125 23.140625 C-108.265248 23.4060614 -110.64773606 23.67102647 -113.03027344 23.93554688 C-128.90455337 25.71509595 -144.73793054 27.64530251 -160.5078125 30.203125 C-161.91125068 30.42720195 -163.3147367 30.65097934 -164.71826172 30.87451172 C-182.56381679 33.72500783 -200.35230869 36.7682817 -218.04101562 40.48291016 C-221.23660146 41.14678186 -224.43527726 41.79158752 -227.63586426 42.43070984 C-261.31774257 49.1727387 -294.87814394 57.22679417 -327.71630859 67.34472656 C-330.78458082 68.28823235 -333.85895222 69.21028398 -336.93359375 70.1328125 C-383.78480663 84.30670718 -429.86885412 101.09892882 -474.5078125 121.203125 C-475.89450957 121.82589463 -477.28122912 122.44861421 -478.66796875 123.07128906 C-488.30257948 127.40230933 -497.91321211 131.78423112 -507.5078125 136.203125 C-508.49442871 136.65703613 -509.48104492 137.11094727 -510.49755859 137.57861328 C-520.61982176 142.25229428 -530.53842427 147.23322852 -540.375 152.48046875 C-544.05260843 154.44037022 -547.74696633 156.36416882 -551.453125 158.26953125 C-565.67132952 165.58213198 -579.66794255 173.19792072 -593.5078125 181.203125 C-594.07709473 181.53201721 -594.64637695 181.86090942 -595.23291016 182.19976807 C-598.96218594 184.35501041 -602.68723055 186.51737731 -606.40808105 188.68713379 C-608.16997782 189.71441274 -609.93310175 190.73958612 -611.69628906 191.76464844 C-628.14767661 201.40629806 -644.10052444 211.81960313 -659.95166016 222.41210938 C-662.63605283 224.20528955 -665.32371863 225.99348325 -668.01171875 227.78125 C-678.96927608 235.08332473 -689.79574757 242.54577114 -700.5078125 250.203125 C-701.43158691 250.86086914 -702.35536133 251.51861328 -703.30712891 252.19628906 C-712.85625657 259.01112011 -722.27389832 265.96656798 -731.5078125 273.203125 C-732.3738208 273.87988281 -732.3738208 273.87988281 -733.25732422 274.5703125 C-740.71361934 280.39849891 -748.14031411 286.26294823 -755.5078125 292.203125 C-756.08756836 292.66944336 -756.66732422 293.13576172 -757.26464844 293.61621094 C-765.13621765 299.95264426 -772.93220945 306.35780887 -780.57373047 312.97045898 C-783.95566831 315.89262696 -787.38746183 318.72872096 -790.8828125 321.515625 C-796.3975968 325.9846428 -801.53603959 330.82194633 -806.67529297 335.7121582 C-807.63459717 336.62421021 -807.63459717 336.62421021 -808.61328125 337.5546875 C-809.45088989 338.35640381 -809.45088989 338.35640381 -810.30541992 339.17431641 C-812.28122848 340.99439945 -814.28822567 342.76455523 -816.31396484 344.52856445 C-830.62976078 357.01994463 -843.99801292 370.53357684 -857.41088867 383.97583008 C-860.06305125 386.6337484 -862.71976288 389.28706773 -865.37777042 391.93913937 C-867.45839828 394.01613347 -869.53661414 396.09552793 -871.61413383 398.17563057 C-872.59285943 399.15501458 -873.57230416 400.13368057 -874.55253792 401.1115551 C-879.53881698 406.08843653 -884.42519174 411.09437326 -889.00047302 416.45423889 C-891.73637418 419.62856001 -894.63414367 422.65398014 -897.5078125 425.703125 C-902.27437787 430.7891636 -906.98203811 435.90039363 -911.5078125 441.203125 C-912.405969 442.24763752 -913.30443684 443.29188237 -914.203125 444.3359375 C-916.79817959 447.35343301 -919.38574345 450.37724602 -921.97021484 453.40380859 C-922.96160636 454.5639476 -923.95404154 455.72319595 -924.94775391 456.88134766 C-930.51616644 463.37164399 -935.9334485 469.94784452 -941.17871094 476.70239258 C-944.23284029 480.62185858 -947.36856456 484.46125097 -950.55395508 488.2746582 C-958.03400634 497.23521166 -964.9936944 506.50120074 -971.85253906 515.94238281 C-973.88548026 518.71893672 -975.95910279 521.46282421 -978.03955078 524.20385742 C-998.64119333 551.37925322 -1017.73523072 580.10547035 -1035.5078125 609.203125 C-1036.20028076 610.33451904 -1036.20028076 610.33451904 -1036.90673828 611.48876953 C-1055.3521024 641.72126218 -1072.36989684 672.68709091 -1088.5078125 704.203125 C-1089.07757812 705.30865723 -1089.64734375 706.41418945 -1090.234375 707.55322266 C-1099.75679105 726.06269061 -1108.35614133 744.90096761 -1116.66503906 763.97949219 C-1118.30324627 767.74047664 -1119.96241596 771.49190848 -1121.625 775.2421875 C-1130.71845581 795.9135666 -1138.67146632 817.0297163 -1146.5078125 838.203125 C-1146.93220612 839.34968567 -1146.93220612 839.34968567 -1147.36517334 840.51940918 C-1159.22817102 872.65039474 -1169.6853928 905.3536555 -1177.8671875 938.62060547 C-1178.72467571 942.07735482 -1179.64239795 945.51460294 -1180.5703125 948.953125 C-1180.87710937 950.108125 -1181.18390625 951.263125 -1181.5 952.453125 C-1182.24039642 955.20808844 -1182.99755745 957.95593853 -1183.765625 960.703125 C-1187.41135166 973.97168147 -1190.32356622 987.36222036 -1193.1328125 1000.828125 C-1193.32072357 1001.72752808 -1193.50863464 1002.62693115 -1193.70223999 1003.55358887 C-1196.44983 1016.74286202 -1199.03555744 1029.9596046 -1201.5078125 1043.203125 C-1201.64048523 1043.91045776 -1201.77315796 1044.61779053 -1201.90985107 1045.34655762 C-1215.0045933 1115.33650173 -1219.3181736 1186.13429074 -1220.5078125 1257.203125 C-1220.8378125 1257.203125 -1221.1678125 1257.203125 -1221.5078125 1257.203125 C-1222.5749934 1158.94423854 -1212.45868724 1061.5901726 -1062.06494141 635.91894531 C-1060.53860535 633.25683144 -1059.02683901 630.58698849 -1057.51953125 627.9140625 C-1036.47702447 590.67000962 -1013.18658239 554.60911788 -987.89404297 520.10693359 C-986.14574535 517.70587252 -984.43189299 515.2815246 -982.71923828 512.85498047 C-976.5502256 504.12487022 -970.05791709 495.64957908 -963.5078125 487.203125 C-962.79407471 486.28249268 -962.79407471 486.28249268 -962.06591797 485.34326172 C-955.16465478 476.4611031 -948.09606037 467.71789663 -940.97998047 459.00732422 C-939.68509739 457.42039454 -938.39490772 455.82963763 -937.10546875 454.23828125 C-932.04095144 448.00150677 -926.84726388 441.88500254 -921.6015625 435.80078125 C-919.58836125 433.4652912 -917.58853089 431.11956098 -915.6015625 428.76171875 C-909.55219209 421.60254976 -903.3048813 414.67690687 -896.84643555 407.88330078 C-893.78388823 404.65794504 -890.78447797 401.40035691 -887.87109375 398.0390625 C-884.47327932 394.1244684 -880.84567567 390.50578124 -877.1328125 386.890625 C-875.17851941 384.88980112 -873.3737068 382.89412037 -871.56640625 380.76953125 C-866.48534167 374.91057038 -860.94644536 369.49278822 -855.45629883 364.02124023 C-853.57452976 362.14483025 -851.69816512 360.26313531 -849.82226562 358.38085938 C-844.3886181 352.94451146 -838.96561089 347.56775657 -833.10717773 342.58422852 C-830.78288233 340.5771244 -828.64916435 338.40235122 -826.5078125 336.203125 C-823.03873119 332.69719458 -819.50501923 329.37513237 -815.7578125 326.171875 C-813.41876458 324.12520807 -811.14684727 322.01875355 -808.87573242 319.89746094 C-803.46676956 314.84605701 -797.95170415 310.04032378 -792.17578125 305.40625 C-789.42391712 303.13384682 -786.81043107 300.75617669 -784.1953125 298.328125 C-779.58430841 294.08442707 -774.78650014 290.20365496 -769.83398438 286.375 C-765.85996174 283.29416161 -762.00451888 280.10977499 -758.1953125 276.828125 C-751.97548724 271.49412185 -745.49697459 266.53704313 -738.96484375 261.59375 C-735.19922654 258.74158689 -731.47902965 255.83561555 -727.76635742 252.91503906 C-719.91307896 246.74515172 -711.91696706 240.85822105 -703.71875 235.15625 C-701.00652839 233.26700456 -698.32573072 231.34534859 -695.671875 229.375 C-679.77765496 217.60179398 -663.09852071 206.95856998 -646.5078125 196.203125 C-645.51507324 195.55891602 -644.52233398 194.91470703 -643.49951172 194.25097656 C-568.33697829 145.65313369 -486.88880127 105.73186087 -391.5078125 71.203125 C-390.80648193 70.95473877 -390.10515137 70.70635254 -389.38256836 70.45043945 C-302.12099856 39.55959252 -211.48274316 18.4484666 -42.5078125 1.203125 C-41.38094465 1.13534536 -41.38094465 1.13534536 -40.2313118 1.06619644 C-26.81628503 0.27865121 -13.43629215 0.02526003 0 0 Z " fill="#85B1F7" transform="translate(1221.5078125,-0.203125)"/>
<path d="M0 0 C0.33 0 0.66 0 1 0 C1.03440186 1.08450439 1.06880371 2.16900879 1.10424805 3.28637695 C2.51789594 46.23341903 5.85084483 89.03233361 11.0625 131.6875 C11.1802478 132.65660309 11.29799561 133.62570618 11.41931152 134.62417603 C12.98442464 147.36868811 14.92883344 160.02497588 17.10009766 172.67993164 C17.90181765 177.36135789 18.62307503 182.05093024 19.3125 186.75 C25.52322755 227.03707684 34.4576722 267.70551494 46.31738281 306.70043945 C47.18464991 309.62203775 48.00786089 312.55533689 48.8359375 315.48828125 C51.0866189 323.39039312 53.53084821 331.22639839 56 339.0625 C56.6430755 341.10871566 57.28563402 343.15509284 57.92797852 345.20153809 C58.34995766 346.54565288 58.77231909 347.88964773 59.19506836 349.23352051 C60.48481146 353.33814692 61.74848814 357.44998772 63 361.56640625 C65.19661041 368.71582397 67.57094188 375.80162523 70 382.875 C70.23477051 383.55920013 70.46954102 384.24340027 70.71142578 384.94833374 C76.05259708 400.46564215 81.92433814 415.75747941 88 431 C88.46937988 432.17965332 88.93875977 433.35930664 89.42236328 434.57470703 C106.32444348 476.90982981 125.17898245 518.94129997 147 559 C147.5676709 560.04768555 148.1353418 561.09537109 148.72021484 562.17480469 C157.8303455 578.96047407 167.2695355 595.50927567 177.12109375 611.87304688 C178.87324588 614.78905057 180.61023904 617.7135152 182.34375 620.640625 C191.84098577 636.57270522 202.16722328 651.93874143 212.52490234 667.31811523 C214.80025437 670.69844479 217.05787257 674.09018912 219.3125 677.484375 C222.35662964 682.05441792 225.45022696 686.58233465 228.625 691.0625 C229.12588135 691.77019531 229.6267627 692.47789062 230.14282227 693.20703125 C245.9582947 715.46494355 262.47146073 737.28868948 279.83203125 758.3671875 C281.27314373 760.11729526 282.70809403 761.87249612 284.13671875 763.6328125 C289.78845904 770.59348367 295.59859912 777.40631992 301.45166016 784.19726562 C302.97840691 785.97485913 304.49641708 787.75952015 306.01171875 789.546875 C311.92721641 796.51395231 317.98362586 803.31395612 324.21484375 810 C326.59404493 812.55368129 328.92921362 815.14296862 331.25 817.75 C343.27551481 831.13702834 355.8367647 844.00072045 368.57568359 856.70605469 C371.02950754 859.15444216 373.47783698 861.60823532 375.92578125 864.0625 C377.51269977 865.64875877 379.09992789 867.23470787 380.6875 868.8203125 C381.76427002 869.90011887 381.76427002 869.90011887 382.86279297 871.0017395 C386.84787884 874.96858099 390.92384608 878.76291356 395.20043945 882.41452026 C397.04662245 884.04107611 398.77776344 885.74343368 400.5 887.5 C403.44600215 890.49234375 406.52983007 893.25324172 409.7109375 895.9921875 C411.93573139 897.94362787 414.11170501 899.94183648 416.28100586 901.95458984 C421.48707294 906.78304485 426.8181598 911.3650513 432.3515625 915.8203125 C434.97275119 917.97757399 437.49154281 920.21311 440 922.5 C445.17199081 927.20626652 450.56347404 931.60483676 456 936 C457.77128573 937.45778383 459.54211634 938.9161208 461.3125 940.375 C467.15441396 945.15249743 473.08056708 949.81689455 479.02978516 954.45947266 C481.1108819 956.08669948 483.18639425 957.72088808 485.26171875 959.35546875 C494.91511065 966.93777701 504.73228192 974.23928484 514.72363281 981.36914062 C517.06028449 983.04318966 519.38686199 984.73041649 521.7109375 986.421875 C528.94398907 991.68405757 536.18386935 996.90035742 543.6640625 1001.80859375 C546.29432671 1003.5364371 548.91176099 1005.27954715 551.5234375 1007.03515625 C613.40265908 1048.59976516 678.7356867 1085.00479539 747 1115 C747.66541809 1115.29263733 748.33083618 1115.58527466 749.01641846 1115.88677979 C791.94801836 1134.73355766 836.10050039 1151.45731884 881 1165 C881.72477539 1165.21914062 882.44955078 1165.43828125 883.19628906 1165.6640625 C887.41038735 1166.93191989 891.63336621 1168.16618064 895.86279297 1169.38183594 C898.02737231 1170.00791715 900.18759218 1170.64759183 902.34765625 1171.2890625 C933.06337357 1180.33410255 964.19096781 1187.57229217 995.53222656 1194.06738281 C999.25366013 1194.84048719 1002.96803843 1195.64196803 1006.6796875 1196.4609375 C1034.04539396 1202.46578449 1061.78049165 1206.22171862 1089.5625 1209.6875 C1090.7189502 1209.83193542 1091.87540039 1209.97637085 1093.06689453 1210.12518311 C1126.86753986 1214.37072018 1126.86753986 1214.37072018 1160.8125 1217.125 C1161.97201172 1217.19847656 1163.13152344 1217.27195312 1164.32617188 1217.34765625 C1183.62664847 1218.53122501 1202.90212426 1219.1672804 1222.23828125 1219.203125 C1223.83411073 1219.20736607 1223.83411073 1219.20736607 1225.46217918 1219.21169281 C1231.11549484 1219.22654614 1236.76878598 1219.2358573 1242.42211914 1219.24023438 C1246.96745027 1219.24457267 1251.5125866 1219.25830282 1256.05786133 1219.28125 C1297.23436967 1219.48455209 1338.2369682 1218.01078907 1379.1875 1213.5 C1381.12555279 1213.29723575 1383.0637055 1213.09542448 1385.00195312 1212.89453125 C1397.55931142 1211.57540633 1410.07516878 1209.9878725 1422.59024048 1208.31860352 C1425.64156076 1207.9151768 1428.69525156 1207.53276493 1431.75 1207.15625 C1432.64589844 1207.04410156 1433.54179688 1206.93195313 1434.46484375 1206.81640625 C1436.18572289 1206.60162781 1437.90710188 1206.39082429 1439.62890625 1206.18359375 C1446.14088733 1205.35893239 1452.52414049 1204.12041592 1458.953125 1202.80273438 C1466.84415358 1201.21046506 1474.80027075 1199.95472019 1482.73876953 1198.625 C1496.74278268 1196.27416238 1510.62371777 1193.7014965 1524.38671875 1190.1640625 C1529.97404331 1188.74328213 1535.58093192 1187.40492969 1541.1875 1186.0625 C1542.25943604 1185.8049292 1543.33137207 1185.5473584 1544.43579102 1185.28198242 C1549.47620144 1184.0729971 1554.51857976 1182.8756713 1559.5703125 1181.71484375 C1570.75959323 1179.131274 1581.72829798 1176.10029648 1592.69775391 1172.70556641 C1595.44606714 1171.86329438 1598.2039204 1171.05794618 1600.96508789 1170.2590332 C1622.73641292 1163.95049602 1644.21701251 1157.03799822 1665.50756836 1149.26147461 C1668.69632794 1148.10968707 1671.89282381 1146.98443384 1675.09367371 1145.86694336 C1684.61712017 1142.53754176 1694.04033597 1138.98196317 1703.4375 1135.3125 C1704.21513702 1135.00941925 1704.99277405 1134.7063385 1705.79397583 1134.39407349 C1719.97834493 1128.8591286 1734.04815967 1123.10100311 1748 1117 C1749.11793945 1116.51241211 1750.23587891 1116.02482422 1751.38769531 1115.52246094 C1770.57944561 1107.11970243 1789.45035652 1098.11275091 1808.2454834 1088.86260986 C1809.84394404 1088.07672507 1811.44386689 1087.29381615 1813.04394531 1086.51123047 C1825.24893971 1080.54048924 1837.21850762 1074.19155599 1849.10205078 1067.60498047 C1852.05266448 1065.97083266 1855.00872417 1064.34681869 1857.96484375 1062.72265625 C1873.9168558 1053.91601517 1889.50025966 1044.57229199 1905 1035 C1905.84127441 1034.4829248 1906.68254883 1033.96584961 1907.54931641 1033.43310547 C1943.25186717 1011.44644373 1977.67794765 987.26340129 2010.85986328 961.65185547 C2012.31031265 960.53233227 2013.76184494 959.41421096 2015.21435547 958.29736328 C2029.50407266 947.3064656 2043.47579973 935.97022403 2057.11645508 924.18261719 C2060.50421434 921.25969115 2063.94247147 918.41999336 2067.4375 915.625 C2072.69337381 911.36432123 2077.61506503 906.78684621 2082.52319336 902.13525391 C2086.27482858 898.58246501 2090.10218578 895.14390378 2094.00219727 891.75488281 C2097.27228276 888.88241861 2100.45179104 885.91617052 2103.625 882.9375 C2104.65270508 881.97457031 2104.65270508 881.97457031 2105.70117188 880.9921875 C2110.99800468 876.00291273 2116.15380656 870.8868654 2121.26757812 865.7109375 C2124.129489 862.82592008 2127.00657866 860.04901746 2130.125 857.4375 C2134.09243871 854.07271021 2137.51942083 850.24836548 2141.00512695 846.40136719 C2145.92866905 840.99903035 2151.08825125 835.85129408 2156.3046875 830.73266602 C2160.14150198 826.9457495 2163.76393335 823.05001123 2167.28295898 818.96655273 C2170.05726992 815.78909296 2172.97365544 812.74849182 2175.875 809.6875 C2180.7652533 804.49241316 2185.40429718 799.18647242 2189.859375 793.609375 C2192.15120465 790.81568484 2194.55231812 788.15791222 2197 785.5 C2201.41511354 780.69213097 2205.56654482 775.72590675 2209.66308594 770.64599609 C2211.7771036 768.04323731 2213.92032609 765.46476139 2216.05908203 762.88232422 C2222.83851792 754.68830315 2229.5047312 746.42100176 2236 738 C2236.90105469 736.83210938 2236.90105469 736.83210938 2237.8203125 735.640625 C2247.1029413 723.58430234 2256.19125592 711.40677723 2265 699 C2265.61911255 698.13166534 2265.61911255 698.13166534 2266.25073242 697.24578857 C2274.02872824 686.33230957 2281.58461128 675.28760567 2289 664.125 C2289.78437439 662.94611206 2289.78437439 662.94611206 2290.58459473 661.7434082 C2298.21973972 650.26418586 2305.81284828 638.76695999 2313 627 C2313.69246826 625.86860596 2313.69246826 625.86860596 2314.39892578 624.71435547 C2332.84306978 594.48386263 2349.88046405 563.52362949 2366 532 C2366.87060059 530.30182129 2366.87060059 530.30182129 2367.75878906 528.56933594 C2397.88123224 469.65313356 2425.25893039 406.19968208 2442.546875 342.20703125 C2444.33529978 335.640402 2446.44520839 329.17447584 2448.5 322.6875 C2452.2592672 310.73557977 2455.49398974 298.72702637 2458.39306641 286.54052734 C2459.23418351 283.01974512 2460.11611256 279.51029582 2461 276 C2461.31324219 274.73929688 2461.62648438 273.47859375 2461.94921875 272.1796875 C2462.72412734 269.07552593 2463.52477623 265.97871231 2464.33203125 262.8828125 C2485.63488361 180.51417025 2495.54726677 93.91531583 2498 9 C2498.33 9 2498.66 9 2499 9 C2500.0634251 48.69029692 2496.3943201 88.58776578 2492 128 C2491.9112561 128.80491882 2491.82251221 129.60983765 2491.7310791 130.43914795 C2483.58870152 204.11012479 2468.47784997 277.07263119 2447 348 C2446.74496704 348.8431073 2446.48993408 349.6862146 2446.22717285 350.55487061 C2429.77929661 404.78634818 2409.60532275 457.48728661 2386 509 C2385.67342407 509.71395935 2385.34684814 510.4279187 2385.01037598 511.16351318 C2371.69289249 540.25291093 2357.39988493 568.78275945 2341.42285156 596.50976562 C2339.6326804 599.64287232 2337.89280605 602.80200121 2336.15722656 605.96557617 C2330.38461564 616.48129516 2324.26249721 626.76957561 2318 637 C2317.44747559 637.90427734 2316.89495117 638.80855469 2316.32568359 639.74023438 C2305.66749091 657.12975794 2294.4109162 674.0990944 2283 691 C2282.4220166 691.85658203 2281.8440332 692.71316406 2281.24853516 693.59570312 C2269.70768609 710.65511533 2257.45495078 727.16356955 2244.91503906 743.49853516 C2243.13016971 745.82996955 2241.35571425 748.168817 2239.5859375 750.51171875 C2232.46656164 759.9209962 2225.08727703 769.07859348 2217.53808594 778.14599609 C2215.46509924 780.64476768 2213.42025238 783.16600655 2211.375 785.6875 C2206.5431051 791.59810207 2201.57147032 797.38510579 2196.58251953 803.16308594 C2195.00669287 804.99223123 2193.43833097 806.82755565 2191.87109375 808.6640625 C2185.52374006 816.07648062 2179.01099838 823.29632589 2172.2878418 830.37060547 C2169.26381323 833.55680591 2166.30379 836.77501719 2163.4296875 840.09765625 C2159.97968842 844.07185844 2156.30798478 847.75372604 2152.5390625 851.421875 C2149.83573501 854.08229253 2147.27732161 856.80310542 2144.80859375 859.68359375 C2140.59919141 864.54735526 2136.06781924 869.08259114 2131.51196289 873.6184082 C2130.06475615 875.06025221 2128.62297974 876.50737116 2127.18164062 877.95507812 C2122.50417757 882.6355472 2117.76121946 887.17537606 2112.73608398 891.48217773 C2110.1935027 893.70510389 2107.85973553 896.08340337 2105.5 898.5 C2101.86440864 902.18488963 2098.15387033 905.70735904 2094.21484375 909.06640625 C2091.88663662 911.09896803 2089.62840339 913.19400071 2087.37011719 915.3034668 C2081.96407993 920.3526052 2076.45100761 925.15527795 2070.6796875 929.7890625 C2067.86746685 932.1093495 2065.18202737 934.53071134 2062.5 937 C2057.6935928 941.41377112 2052.72889917 945.5636031 2047.65039062 949.65869141 C2045.751612 951.20187037 2043.86744261 952.76190797 2041.984375 954.32421875 C2034.56066628 960.48132713 2027.10157636 966.55052779 2019.421875 972.38671875 C2016.87217649 974.32470134 2014.34628035 976.29073601 2011.828125 978.26953125 C2001.40662171 986.45377863 1990.80764393 994.33393285 1980 1002 C1979.42588379 1002.40955933 1978.85176758 1002.81911865 1978.26025391 1003.24108887 C1967.66267926 1010.80030629 1956.93811067 1018.14673192 1946.09863281 1025.35449219 C1943.63115059 1026.99590851 1941.16700051 1028.64223864 1938.703125 1030.2890625 C1896.72604864 1058.28653899 1852.89328172 1083.00932027 1808 1106 C1807.00033203 1106.5141748 1806.00066406 1107.02834961 1804.97070312 1107.55810547 C1763.99303496 1128.58756009 1721.23578225 1146.20086733 1678 1162 C1677.25208191 1162.2743689 1676.50416382 1162.54873779 1675.73358154 1162.8314209 C1585.77064999 1195.81807236 1491.13359673 1217.39766068 1276.3046875 1236.203125 C1274.27617369 1236.21014687 1272.2476601 1236.2172337 1270.21914673 1236.22438049 C1263.77109459 1236.24378353 1257.32307839 1236.24881466 1250.875 1236.25 C1249.22726089 1236.25066278 1249.22726089 1236.25066278 1247.54623413 1236.25133896 C1215.56181237 1236.25808731 1183.70653883 1236.12142795 1151.82647705 1233.25323486 C1148.85618428 1232.987115 1145.88501589 1232.73293035 1142.91357422 1232.47998047 C1082.33146517 1227.26170722 1022.19451391 1217.92380543 963 1204 C962.12190674 1203.79352844 961.24381348 1203.58705688 960.33911133 1203.37432861 C919.96220865 1193.84389322 880.2514212 1182.23198816 841.0368042 1168.70129395 C839.05596371 1168.01926892 837.07346557 1167.34231705 835.09033203 1166.66699219 C793.46880038 1152.47165498 752.93904827 1135.23295635 713.17578125 1116.49609375 C710.20321078 1115.09573153 707.22699456 1113.70342494 704.25 1112.3125 C693.62425076 1107.32668991 683.18599804 1102.06125192 672.84179688 1096.51660156 C670.17792356 1095.09495371 667.50807307 1093.68508536 664.83590698 1092.27909851 C648.31152082 1083.58276273 632.0408881 1074.56736685 616 1065 C613.91020368 1063.76163871 611.82035901 1062.52335901 609.73046875 1061.28515625 C552.70814035 1027.39159248 498.08211743 988.93846796 447.58398438 945.8828125 C444.24207912 943.03615846 440.85582276 940.25419148 437.4375 937.5 C432.36392507 933.37309794 427.56258858 928.99897442 422.76953125 924.5546875 C420.54081607 922.49886278 418.29232081 920.48383043 416 918.5 C411.63063544 914.70840266 407.37894101 910.79083435 403.125 906.87109375 C401.13534226 905.03841705 399.13501385 903.22080732 397.125 901.41015625 C390.46356387 895.39133148 384.07186095 889.15282882 377.78222656 882.74536133 C374.59593226 879.51658849 371.37302374 876.41193639 367.9296875 873.45703125 C364.12979398 870.18059245 360.7424138 866.65074824 357.375 862.9375 C352.55257379 857.68869472 347.63245888 852.57257211 342.5625 847.5625 C338.53496617 843.57422726 334.62290883 839.57335156 330.9609375 835.2421875 C328.1033745 831.97477483 325.10391229 828.84407714 322.125 825.6875 C317.25629841 820.51342875 312.6422904 815.23014104 308.20703125 809.67578125 C305.74020018 806.68502145 303.14007685 803.83659624 300.5 801 C295.41538244 795.52723697 290.67846002 789.82489346 286 784 C284.56390015 782.24885082 283.12637677 780.49886817 281.6875 778.75 C266.56579675 760.24753468 252.07021886 741.31380881 238 722 C237.5494928 721.38526825 237.0989856 720.7705365 236.63482666 720.13717651 C228.65291283 709.23934804 220.97511747 698.17449697 213.51513672 686.91333008 C211.87177848 684.43263703 210.22345744 681.95530217 208.57421875 679.47851562 C198.67698957 664.59779199 188.88002933 649.66572389 179.625 634.375 C179.26693268 633.78426697 178.90886536 633.19353394 178.53994751 632.5848999 C171.4419562 620.86318474 164.6264504 608.99498389 158 597 C157.49662109 596.09088867 156.99324219 595.18177734 156.47460938 594.24511719 C148.75723005 580.28151493 141.27150816 566.20077799 134 552 C133.54820374 551.11797913 133.54820374 551.11797913 133.08728027 550.21813965 C122.78122486 530.07732209 113.02946391 509.74541474 104 489 C103.68653625 488.28068298 103.37307251 487.56136597 103.05010986 486.82025146 C64.23397599 397.60679256 36.16685692 304.16218141 1 53 C0.94215332 51.95473145 0.88430664 50.90946289 0.82470703 49.83251953 C-0.0723908 33.21890659 -0.11569996 16.63231383 0 0 Z " fill="#175ABC" transform="translate(1,1264)"/>
<path d="M0 0 C0.99 0 1.98 0 3 0 C3.24492187 0.7528125 3.48984375 1.505625 3.7421875 2.28125 C6.27421235 9.47569301 9.44114011 15.63549769 13.58056641 22.01757812 C17.88912858 28.70226519 21.82907287 35.58392505 25.75 42.5 C27.14007096 44.9482316 28.53082323 47.39607556 29.921875 49.84375 C30.26623093 50.44992661 30.61058685 51.05610321 30.96537781 51.6806488 C34.26451968 57.48058088 37.62609924 63.24326973 41 69 C46.40395658 78.2277728 51.72652605 87.49995098 57.02050781 96.79101562 C61.63502852 104.88744218 66.29103794 112.95801457 71 121 C76.0318979 129.5951729 81.00389124 138.22312222 85.9375 146.875 C92.96603507 159.20025196 100.04240434 171.49722067 107.14111328 183.78222656 C110.26324605 189.18670645 113.38141204 194.59347412 116.5 200 C117.74998122 202.1666775 118.99998121 204.33334417 120.25 206.5 C127.75 219.5 135.25 232.5 142.75 245.5 C143.36987793 246.57443359 143.98975586 247.64886719 144.62841797 248.75585938 C145.86710002 250.90295136 147.1057079 253.05008614 148.34423828 255.19726562 C151.2853335 260.29588809 154.22721413 265.39405296 157.17169189 270.49072266 C158.56958601 272.91047665 159.96706089 275.33047263 161.36450195 277.75048828 C162.35652324 279.46801052 163.34915429 281.18518052 164.34179688 282.90234375 C165.23608398 284.45115234 165.23608398 284.45115234 166.1484375 286.03125 C166.67614746 286.94455078 167.20385742 287.85785156 167.74755859 288.79882812 C170.13504935 292.99485476 170.13522896 296.27515214 170.11352539 301.02978516 C170.11367142 301.85913071 170.11381744 302.68847626 170.1139679 303.54295349 C170.11326971 306.29168285 170.10548171 309.04034494 170.09765625 311.7890625 C170.09579174 313.69192467 170.09436799 315.59478732 170.09336853 317.49765015 C170.08954599 322.51181356 170.07971793 327.52594811 170.06866455 332.5401001 C170.05844479 337.65433359 170.0538697 342.76857174 170.04882812 347.8828125 C170.03809545 357.92188769 170.02102216 367.96094145 170 378 C167.40703417 374.79278522 165.02789764 371.61246293 162.85546875 368.10546875 C162.26870361 367.1621167 161.68193848 366.21876465 161.07739258 365.24682617 C160.45372803 364.23724854 159.83006348 363.2276709 159.1875 362.1875 C157.8412156 360.02078998 156.49485939 357.85412458 155.1484375 355.6875 C154.46104492 354.57890625 153.77365234 353.4703125 153.06542969 352.328125 C149.82559175 347.10762018 146.56944327 341.8973444 143.3125 336.6875 C142.68690186 335.68614014 142.06130371 334.68478027 141.41674805 333.65307617 C137.62771067 327.59150872 133.82227161 321.54065776 130 315.5 C123.60014247 305.38576612 117.26124107 295.23370157 110.92333984 285.08056641 C107.78410778 280.05253516 104.64196553 275.02632342 101.5 270 C97.71334447 263.94234112 93.92739003 257.88424953 90.14453125 251.82421875 C84.44978005 242.70335707 78.74952479 233.58645829 73 224.5 C66.60014247 214.38576612 60.26124107 204.23370157 53.92333984 194.08056641 C50.78410775 189.05253511 47.64189167 184.02636963 44.5 179 C43.88294189 178.01257813 43.26588379 177.02515625 42.63012695 176.0078125 C38.84588919 169.95224257 35.05936049 163.89811259 31.27124023 157.8449707 C29.39595239 154.84600709 27.52396346 151.84500386 25.65234375 148.84375 C23.24220699 144.98033866 20.81651154 141.1273819 18.37890625 137.28125 C6.08732223 117.81041956 6.08732223 117.81041956 3 109 C2.7498262 108.28789871 2.4996524 107.57579742 2.24189758 106.84211731 C-0.93483193 96.26770656 -0.376763 85.53402289 -0.29296875 74.609375 C-0.28736422 72.4517649 -0.28309818 70.29415095 -0.28010559 68.13653564 C-0.26872426 62.49441744 -0.23931566 56.85253584 -0.20599365 51.21051025 C-0.17514715 45.4385498 -0.16156926 39.66655061 -0.14648438 33.89453125 C-0.11443887 22.59625098 -0.06332483 11.29814527 0 0 Z " fill="#185ABC" transform="translate(456,800)"/>
<path d="M0 0 C1.8311944 2.7467916 2.49038299 4.3223493 3.27758789 7.43164062 C3.50899979 8.33544464 3.74041168 9.23924866 3.97883606 10.17044067 C4.22429672 11.15575775 4.46975739 12.14107483 4.72265625 13.15625 C4.98394821 14.18853729 5.24524017 15.22082458 5.51445007 16.28439331 C6.3719753 19.68760797 7.21861101 23.09337956 8.0625 26.5 C8.35378784 27.67234192 8.64507568 28.84468384 8.94519043 30.05255127 C26.34963779 100.28519118 37.38760561 171.56108442 42.82455444 243.70483398 C42.9822725 245.76809019 43.15211332 247.83041119 43.32348633 249.89257812 C44.31418218 263.07866158 44.10936033 276.28538737 44.0625 289.5 C44.05747356 291.98046784 44.05291268 294.46093668 44.04882812 296.94140625 C44.03791644 302.96095943 44.02126955 308.98047497 44 315 C43.67 315 43.34 315 43 315 C42.87760417 312.796875 42.75520833 310.59375 42.6328125 308.390625 C42.59379822 307.68918365 42.55478394 306.98774231 42.5145874 306.26504517 C42.29407942 302.29930801 42.07436122 298.33352939 41.85595703 294.36767578 C41.43771116 286.78672622 41.01590402 279.20613943 40.56460571 271.6270752 C40.37670227 268.46682607 40.1926045 265.30635969 40.00872803 262.14587402 C39.92129466 260.66114289 39.83205517 259.17651673 39.74078369 257.6920166 C39.30861954 250.65287847 38.95644703 243.65703399 39.05587769 236.60298157 C39.21626877 224.86096975 38.03799741 213.34826327 36.75 201.6875 C36.51932514 199.54502544 36.28885849 197.40252845 36.05859375 195.26000977 C34.34323822 179.46069436 32.41066517 163.70987684 30 148 C29.81469727 146.77716309 29.62939453 145.55432617 29.43847656 144.29443359 C26.45715917 124.76209209 22.89808486 105.3686868 19 86 C18.62657471 84.13118164 18.62657471 84.13118164 18.24560547 82.22460938 C14.37107796 62.88983368 10.08584951 43.68859316 5.06640625 24.6171875 C4.74341553 23.38822754 4.4204248 22.15926758 4.08764648 20.89306641 C3.45953314 18.51601661 2.82521351 16.14059557 2.18383789 13.76708984 C1.89887451 12.69410645 1.61391113 11.62112305 1.3203125 10.515625 C1.06523926 9.56977539 0.81016602 8.62392578 0.54736328 7.64941406 C0.00400641 5.0193923 -0.10248935 2.67685209 0 0 Z " fill="#2579EA" transform="translate(2455,916)"/>
<path d="M0 0 C0.33 0 0.66 0 1 0 C2.14444461 42.71419405 -2.19680667 85.60446707 -7 128 C-7.99 128.33 -8.98 128.66 -10 129 C-9.45990916 121.60640993 -8.7209684 114.243405 -7.9140625 106.875 C-4.03667962 71.32638957 -1.03278285 35.75565448 0 0 Z " fill="#1860C6" transform="translate(2499,1273)"/>
<path d="M0 0 C0.33 0 0.66 0 1 0 C1.03440186 1.08450439 1.06880371 2.16900879 1.10424805 3.28637695 C2.11947311 34.15443713 4.4257785 64.83022555 7.18772888 95.58750916 C7.93936141 104.05189193 8.55349426 112.5139331 9 121 C8.34 120.67 7.68 120.34 7 120 C4.62727545 110.37728378 4.27537335 100.11824528 3.5 90.25 C3.43718842 89.46286621 3.37437683 88.67573242 3.30966187 87.86474609 C0.99397129 58.61268878 -0.46306959 29.34792596 0 0 Z " fill="#1860C8" transform="translate(1,1264)"/>
<path d="M0 0 C0.33 0 0.66 0 1 0 C1.41174102 4.54890545 1.82050908 9.09806605 2.22680664 13.64746094 C2.36470955 15.18724354 2.50335237 16.7269601 2.64282227 18.26660156 C3.05270052 22.79449853 3.44843252 27.32326173 3.82272339 31.85424805 C3.9845199 33.81262929 4.15129842 35.77059729 4.31860352 37.72851562 C5.30924419 50.96987417 5.10955569 64.23029415 5.0625 77.5 C5.05747356 79.98046784 5.05291268 82.46093668 5.04882812 84.94140625 C5.03791644 90.96095943 5.02126955 96.98047497 5 103 C4.67 103 4.34 103 4 103 C3.87760417 100.796875 3.75520833 98.59375 3.6328125 96.390625 C3.59379822 95.6897728 3.55478394 94.98892059 3.5145874 94.26683044 C3.29338172 90.29101363 3.07355069 86.31512756 2.85595703 82.33911133 C2.40469324 74.1187642 1.93737437 65.90017763 1.421875 57.68359375 C0.23121867 38.42722641 -0.26923425 19.2937402 0 0 Z " fill="#3B86ED" transform="translate(2494,1128)"/>
<path d="M0 0 C1.92485352 13.53230356 3.50974688 27.0960839 4.91516113 40.69116211 C5.09403251 42.41284922 5.27598378 44.13421967 5.46130371 45.85522461 C6.72169908 57.61470771 7.2321931 69.17416538 7 81 C6.67 81 6.34 81 6 81 C5.89977539 79.94014893 5.79955078 78.88029785 5.69628906 77.78833008 C3.9003974 58.89392168 2.06721912 40.03332768 -0.69238281 21.2512207 C-1.68194242 14.51073485 -2.46282026 7.79215135 -3 1 C-1 0 -1 0 0 0 Z " fill="#76A8F5" transform="translate(2488,1078)"/>
<path d="M0 0 C2.10827055 3.16240582 2.33817465 4.50657469 2.625 8.1875 C2.69976563 9.08855469 2.77453125 9.98960938 2.8515625 10.91796875 C2.90054688 11.60503906 2.94953125 12.29210938 3 13 C2.34 13 1.68 13 1 13 C1 24.22 1 35.44 1 47 C0.67 47 0.34 47 0 47 C0 31.49 0 15.98 0 0 Z " fill="#2165C7" transform="translate(627,1608)"/>
<path d="M0 0 C0.33 0 0.66 0 1 0 C2.1922117 9.66543055 2.09622024 19.28175551 2 29 C1.67 29 1.34 29 1 29 C0.66068773 26.33397504 0.32842824 23.66736986 0 21 C-0.09539063 20.25621094 -0.19078125 19.51242187 -0.2890625 18.74609375 C-1.88335987 5.65007962 -1.88335987 5.65007962 0 0 Z " fill="#6BA2F3" transform="translate(2493,1130)"/>
<path d="M0 0 C0.33 0 0.66 0 1 0 C1.05834353 3.22909006 1.09371115 6.45804338 1.125 9.6875 C1.15013672 11.05551758 1.15013672 11.05551758 1.17578125 12.45117188 C1.20936169 17.06848227 1.23556185 20.81932331 -1 25 C-1.33 25 -1.66 25 -2 25 C-1.85756403 22.33311371 -1.71113422 19.66654233 -1.5625 17 C-1.50352539 15.88431641 -1.50352539 15.88431641 -1.44335938 14.74609375 C-1.16338273 9.79266082 -0.66489429 4.91686531 0 0 Z " fill="#216DD5" transform="translate(1931,1582)"/>
</svg>
